<svg width="20" height="20" viewBox="0 0 20 20" fill="none" xmlns="http://www.w3.org/2000/svg">
<path d="M10.0049 11.6666L17.1536 7.49992L10.0049 3.33325L2.85632 7.49992L10.0049 11.6666Z" stroke="white"/>
<path d="M10.005 11.6666L14.8978 8.81494C15.5416 10.53 15.7243 12.3976 15.426 14.2141C13.4113 14.4193 11.5119 15.2946 10.005 16.7124C8.49824 15.2948 6.59911 14.4194 4.58472 14.2141C4.28623 12.3976 4.46894 10.53 5.11292 8.81494L10.005 11.6666Z" stroke="white"/>
<path d="M10.0049 11.6666L17.1536 7.49992L10.0049 3.33325L2.85632 7.49992L10.0049 11.6666ZM10.0049 11.6666L14.8978 8.81492C15.5416 10.53 15.7243 12.3976 15.426 14.2141C13.4113 14.4192 11.5119 15.2946 10.0049 16.7124C8.49822 15.2948 6.59909 14.4194 4.5847 14.2141C4.28621 12.3976 4.46892 10.5299 5.11291 8.81492L10.0049 11.6666ZM6.82778 16.6666V10.4166L10.0049 8.56492" stroke="white" stroke-width="2" stroke-linecap="round" stroke-linejoin="round"/>
</svg>
