<svg width="19" height="19" viewBox="0 0 19 19" fill="none" xmlns="http://www.w3.org/2000/svg">
<path d="M16.625 10.4935C14.3612 11.4088 11.9418 11.8779 9.5 11.8749C6.98013 11.8749 4.57583 11.3841 2.375 10.4935M9.5 9.49992H9.50792M12.6667 4.74992V3.16659C12.6667 2.74666 12.4999 2.34393 12.2029 2.047C11.906 1.75007 11.5033 1.58325 11.0833 1.58325H7.91667C7.49674 1.58325 7.09401 1.75007 6.79708 2.047C6.50015 2.34393 6.33333 2.74666 6.33333 3.16659V4.74992H12.6667ZM3.95833 15.8333H15.0417C15.4616 15.8333 15.8643 15.6664 16.1613 15.3695C16.4582 15.0726 16.625 14.6698 16.625 14.2499V6.33325C16.625 5.91333 16.4582 5.5106 16.1613 5.21367C15.8643 4.91673 15.4616 4.74992 15.0417 4.74992H3.95833C3.53841 4.74992 3.13568 4.91673 2.83875 5.21367C2.54181 5.5106 2.375 5.91333 2.375 6.33325V14.2499C2.375 14.6698 2.54181 15.0726 2.83875 15.3695C3.13568 15.6664 3.53841 15.8333 3.95833 15.8333Z" stroke="white" stroke-width="2" stroke-linecap="round" stroke-linejoin="round"/>
</svg>
