<svg width="100" height="100" viewBox="0 0 100 100" fill="none" xmlns="http://www.w3.org/2000/svg">
<circle cx="50" cy="50" r="50" fill="#365486" fill-opacity="0.95"/>
<mask id="mask0_2_253" style="mask-type:alpha" maskUnits="userSpaceOnUse" x="0" y="0" width="100" height="100">
<circle cx="50" cy="50" r="50" fill="#7C72F1"/>
</mask>
<g mask="url(#mask0_2_253)">
<path d="M21 91.0909C21 80.5473 29.5473 72 40.0909 72H58.9091C69.4527 72 78 80.5473 78 91.0909C78 96.0113 74.0113 100 69.0909 100H29.9091C24.9887 100 21 96.0113 21 91.0909Z" fill="black"/>
</g>
<path d="M43 61H57V71C57 74.866 53.866 78 50 78C46.134 78 43 74.866 43 71V61Z" fill="#E3AE9F"/>
<path d="M31 23H69V50C69 60.4934 60.4934 69 50 69C39.5066 69 31 60.4934 31 50V23Z" fill="#E3AE9F"/>
<rect width="10" height="4" rx="2" transform="matrix(1 0 0 -1 53 42)" fill="#3C2929"/>
<rect width="10" height="4" rx="2" transform="matrix(1 0 0 -1 37 42)" fill="#3C2929"/>
<rect x="40" y="44" width="3" height="5" rx="1.5" fill="#341615"/>
<rect x="56" y="44" width="3" height="5" rx="1.5" fill="#341615"/>
<path d="M56 55C56 56.3261 55.4205 57.5979 54.3891 58.5355C53.3576 59.4732 51.9587 60 50.5 60C49.0413 60 47.6424 59.4732 46.6109 58.5355C45.5795 57.5979 45 56.3261 45 55L50.5 55H56Z" fill="white"/>
<path d="M31 51C29.6739 51 28.4021 50.4205 27.4645 49.3891C26.5268 48.3576 26 46.9587 26 45.5C26 44.0413 26.5268 42.6424 27.4645 41.6109C28.4021 40.5795 29.6739 40 31 40L31 45.5L31 51Z" fill="#E3AE9F"/>
<path d="M31 51C29.6739 51 28.4021 50.4205 27.4645 49.3891C26.5268 48.3576 26 46.9587 26 45.5C26 44.0413 26.5268 42.6424 27.4645 41.6109C28.4021 40.5795 29.6739 40 31 40L31 45.5L31 51Z" fill="#E3AE9F"/>
<path d="M69 51C70.3261 51 71.5979 50.4205 72.5355 49.3891C73.4732 48.3576 74 46.9587 74 45.5C74 44.0413 73.4732 42.6424 72.5355 41.6109C71.5979 40.5795 70.3261 40 69 40L69 45.5L69 51Z" fill="#E3AE9F"/>
<path d="M69 51C70.3261 51 71.5979 50.4205 72.5355 49.3891C73.4732 48.3576 74 46.9587 74 45.5C74 44.0413 73.4732 42.6424 72.5355 41.6109C71.5979 40.5795 70.3261 40 69 40L69 45.5L69 51Z" fill="#E3AE9F"/>
<circle cx="64" cy="25" r="9" fill="#3B2A29"/>
<rect x="23" y="14" width="38" height="18" rx="9" fill="#3C2929"/>
</svg>
