<svg width="84" height="84" viewBox="0 0 84 84" fill="none" xmlns="http://www.w3.org/2000/svg">
<path d="M59.4622 49.7454C57.6728 49.6313 56.6325 48.6187 56.3572 46.7246C56.2838 46.2206 56.2838 46.2075 56.2759 42.9363L56.2687 39.77H57.8524L57.8582 42.8326C57.8641 45.5926 57.8674 45.9167 57.8943 46.1104C58.0018 46.8987 58.2161 47.4288 58.5819 47.8089C58.8742 48.1134 59.2164 48.2914 59.6903 48.3859C59.9131 48.4309 60.5496 48.4309 60.7535 48.3859C61.2109 48.2933 61.6304 48.0672 61.9582 47.7365C62.3456 47.3518 62.632 46.8061 62.771 46.1893L62.8169 45.9813L62.8221 42.8932L62.8274 39.8039H64.4444V49.5153H62.8444V48.7446C62.8444 48.2216 62.8385 47.9765 62.826 47.9804C62.7897 48.0225 62.7591 48.0692 62.7349 48.1193C62.4432 48.6348 62.015 49.0608 61.4968 49.351C60.8937 49.6802 60.2887 49.7976 59.4622 49.7454ZM77.6187 49.7376C76.967 49.6837 76.337 49.4792 75.7788 49.1403C74.633 48.4362 73.9553 47.2755 73.7573 45.6794C73.6885 45.1264 73.68 44.3844 73.7376 43.915C73.8655 42.8652 74.2804 41.835 74.8716 41.1001C75.0224 40.9111 75.3665 40.57 75.5559 40.4194C76.0669 40.0137 76.6648 39.7302 77.3034 39.5907C77.6744 39.5105 78.3272 39.4727 78.7212 39.5085C79.7109 39.5998 80.6168 40.0628 81.2329 40.7911C81.8596 41.5311 82.203 42.5653 82.2476 43.8387C82.2547 44.0979 82.2557 44.3573 82.2509 44.6166L82.2423 45.0312L78.7775 45.0352L75.3127 45.0397V45.1936C75.3127 45.6611 75.4268 46.1938 75.6247 46.6476C75.7952 47.0382 76.0895 47.4646 76.3294 47.6713C76.8224 48.0948 77.4371 48.3531 78.086 48.4094C78.3312 48.4322 78.9552 48.4081 79.2337 48.3657C80.0301 48.2438 80.7872 47.9334 81.3974 47.479C81.4695 47.4249 81.5384 47.3747 81.5508 47.3675C81.5685 47.3564 81.5731 47.4959 81.5725 48.0847V48.815L81.4079 48.9161C80.7011 49.3461 79.9091 49.6188 79.0863 49.7154C78.8359 49.7461 77.9176 49.7598 77.618 49.7376H77.6187ZM80.6338 43.5726C80.6338 42.7896 80.3015 41.9191 79.8315 41.4712C79.4962 41.1514 79.0679 40.9451 78.6078 40.8817C78.3797 40.8465 77.8992 40.8602 77.6586 40.9078C77.1672 41.0009 76.7155 41.2395 76.3628 41.5924C75.9744 41.9749 75.6807 42.4418 75.5048 42.9565C75.4392 43.1456 75.3632 43.4553 75.3389 43.6274L75.3278 43.7096H80.6338V43.5726ZM33.6334 49.4931L36.2481 42.6683L38.8556 35.865H40.5309L40.6004 36.041C40.8128 36.5829 45.8199 49.5003 45.8199 49.5068C45.8199 49.5114 45.4188 49.5146 44.9285 49.5146H44.037L43.316 47.6055L42.5937 45.6963H36.7823L36.7574 45.7615C36.7436 45.7967 36.4349 46.6561 36.0718 47.67L35.4124 49.5146H34.519C33.8124 49.5146 33.6275 49.5107 33.6334 49.4931ZM42.0634 44.2397C42.0634 44.2364 41.5784 42.9284 40.9845 41.3316C39.8742 38.3466 39.8119 38.1667 39.7241 37.6874C39.6828 37.4631 39.6618 37.4566 39.6375 37.6613C39.6029 37.8835 39.5525 38.1029 39.4868 38.3179C39.4573 38.4086 38.9572 39.772 38.3751 41.3486C38.0191 42.3081 37.6663 43.2688 37.3165 44.2306C37.3165 44.2384 38.3849 44.2449 39.69 44.2449C40.9957 44.2449 42.0634 44.2423 42.0634 44.2397ZM46.3587 49.2668V49.0178L49.2539 45.0632L52.1491 41.1086L49.5272 41.1001L46.9067 41.0917L46.9021 40.4305L46.8975 39.77H54.48V40.216L51.5848 44.1921C49.992 46.379 48.6889 48.1721 48.6889 48.176C48.6889 48.1806 49.9762 48.1845 51.5494 48.1845H54.4105V49.5146H46.3587V49.2668ZM67.6031 49.5035C67.5965 49.497 67.592 47.3042 67.592 44.6309V39.7694H69.1743V40.7715C69.1743 41.3231 69.1808 41.7737 69.1887 41.7737C69.1972 41.7737 69.2359 41.6837 69.2745 41.5735C69.458 41.0595 69.761 40.596 70.1588 40.2206C70.5008 39.8906 70.9377 39.6747 71.4088 39.6031C71.5444 39.5816 71.6591 39.577 71.9305 39.5842C72.2714 39.5933 72.449 39.6181 72.6561 39.6852L72.7217 39.7061V41.3388L72.5349 41.2462C72.2111 41.083 71.8487 41.0109 71.4868 41.0376C71.2318 41.0506 71.0646 41.0832 70.8608 41.1588C70.4472 41.3106 70.0963 41.5954 69.8638 41.968C69.5091 42.5437 69.2833 43.1886 69.2018 43.8589C69.1887 43.9743 69.1815 44.9165 69.1782 46.7728L69.1736 49.5159H68.3943C67.9656 49.5159 67.6097 49.5107 67.6031 49.5042V49.5035Z" fill="#176B87"/>
<path d="M10.655 29.0653H18.6516L10.3506 53.5315C10.2653 53.783 10.1029 54.0015 9.88618 54.1563C9.66946 54.3111 9.40937 54.3943 9.14258 54.3943H2.91945C2.71734 54.3943 2.51814 54.3464 2.3383 54.2546C2.15847 54.1629 2.00316 54.0299 1.88521 53.8666C1.76728 53.7033 1.69016 53.5144 1.66022 53.3156C1.63028 53.1168 1.64838 52.9137 1.71303 52.7232L9.44703 29.928C9.53232 29.6765 9.69475 29.4579 9.91145 29.3031C10.1282 29.1483 10.3882 29.065 10.655 29.0649V29.0653Z" fill="#176B87"/>
<path d="M22.2748 45.4758H9.59472C9.4768 45.4756 9.36153 45.5106 9.26395 45.5765C9.16637 45.6424 9.09101 45.736 9.04771 45.8451C9.0044 45.9542 8.99515 46.0738 9.02117 46.1882C9.0472 46.3026 9.10728 46.4065 9.19358 46.4865L17.3417 54.052C17.5791 54.2721 17.8916 54.3945 18.2161 54.3943H25.3961L22.2748 45.4758Z" fill="#176B87"/>
<path d="M10.655 29.065C10.3853 29.0639 10.1223 29.1487 9.90446 29.307C9.68664 29.4652 9.52538 29.6885 9.44422 29.9444L1.7226 52.7021C1.65367 52.8933 1.63204 53.0982 1.65953 53.2994C1.68702 53.5007 1.76284 53.6924 1.88056 53.8584C1.99828 54.0243 2.15444 54.1596 2.33585 54.2528C2.51725 54.3461 2.71855 54.3945 2.92273 54.3939H9.30664C9.5444 54.3517 9.76663 54.2474 9.95061 54.0918C10.1346 53.9361 10.2738 53.7347 10.3539 53.508L11.8936 48.9937L17.394 54.0969C17.6245 54.2866 17.9136 54.3915 18.2127 54.3939H25.3663L22.2287 45.4752L13.0827 45.4773L18.6804 29.065H10.655Z" fill="url(#paint0_linear_16_512)"/>
<path d="M20.8686 29.9264C20.7834 29.6753 20.6212 29.4571 20.4048 29.3025C20.1883 29.148 19.9286 29.0649 19.6622 29.0649H10.7502C11.0166 29.065 11.2763 29.1481 11.4927 29.3026C11.7091 29.4572 11.8713 29.6753 11.9565 29.9264L19.6907 52.7226C19.7554 52.9132 19.7736 53.1163 19.7437 53.3152C19.7139 53.5141 19.6368 53.7031 19.5189 53.8665C19.401 54.0298 19.2457 54.1629 19.0658 54.2547C18.8859 54.3465 18.6866 54.3944 18.4844 54.3943H27.3968C27.5989 54.3942 27.798 54.3462 27.9778 54.2543C28.1576 54.1625 28.3128 54.0294 28.4306 53.8661C28.5485 53.7027 28.6255 53.5138 28.6555 53.315C28.6854 53.1162 28.6673 52.9131 28.6028 52.7226L20.8686 29.9264Z" fill="#176B87"/>
<defs>
<linearGradient id="paint0_linear_16_512" x1="16.1636" y1="42.3152" x2="14.2448" y2="42.9675" gradientUnits="userSpaceOnUse">
<stop stop-opacity="0.3"/>
<stop offset="0.071" stop-opacity="0.2"/>
<stop offset="0.321" stop-opacity="0.1"/>
<stop offset="0.623" stop-opacity="0.05"/>
<stop offset="1" stop-opacity="0"/>
</linearGradient>
</defs>
</svg>
