<svg width="84" height="84" viewBox="0 0 84 84" fill="none" xmlns="http://www.w3.org/2000/svg">
<path d="M10.0953 17.541C9.93994 13.0974 13.4198 9 18.1241 9H66.3273C71.0316 9 74.5115 13.0974 74.3561 17.541C74.2067 21.8092 74.4007 27.3384 75.7995 31.8465C77.2028 36.369 79.5691 39.2269 83.4449 39.5946V43.7591C79.5691 44.1262 77.2028 46.9847 75.7995 51.5072C74.4007 56.0154 74.2067 61.5446 74.3561 65.8128C74.5115 70.2564 71.0316 74.3531 66.3273 74.3531H18.1241C13.4198 74.3531 9.93994 70.2557 10.0953 65.8128C10.2447 61.5446 10.0507 56.0154 8.65129 51.5072C7.24858 46.9854 4.87579 44.1269 1 43.7591V39.5946C4.87579 39.2275 7.24858 36.369 8.65129 31.8465C10.0507 27.3384 10.2441 21.8092 10.0953 17.541Z" fill="#176B87"/>
<g filter="url(#filter0_d_16_423)">
<path d="M43.9883 58.7586C51.6042 58.7586 56.1935 55.0492 56.1935 48.9309C56.1935 44.3061 52.919 40.9579 48.0567 40.4279V40.2352C51.629 39.6571 54.4323 36.3571 54.4323 32.6717C54.4323 27.4206 50.2647 24 43.9139 24H29.6248V58.7586H43.9883ZM35.1817 28.4081H42.5744C46.5932 28.4081 48.8754 30.1906 48.8754 33.4183C48.8754 36.8629 46.2211 38.7899 41.4084 38.7899H35.1817V28.4081ZM35.1817 54.3505V42.9089H42.5247C47.7838 42.9089 50.5127 44.8358 50.5127 48.5936C50.5127 52.3512 47.8584 54.3505 42.8472 54.3505H35.1817Z" fill="url(#paint0_linear_16_423)"/>
<path d="M43.9883 58.7586C51.6042 58.7586 56.1935 55.0492 56.1935 48.9309C56.1935 44.3061 52.919 40.9579 48.0567 40.4279V40.2352C51.629 39.6571 54.4323 36.3571 54.4323 32.6717C54.4323 27.4206 50.2647 24 43.9139 24H29.6248V58.7586H43.9883ZM35.1817 28.4081H42.5744C46.5932 28.4081 48.8754 30.1906 48.8754 33.4183C48.8754 36.8629 46.2211 38.7899 41.4084 38.7899H35.1817V28.4081ZM35.1817 54.3505V42.9089H42.5247C47.7838 42.9089 50.5127 44.8358 50.5127 48.5936C50.5127 52.3512 47.8584 54.3505 42.8472 54.3505H35.1817Z" stroke="white" stroke-width="0.24566"/>
</g>
<defs>
<filter id="filter0_d_16_423" x="25.5715" y="20.9293" width="34.6755" height="42.8653" filterUnits="userSpaceOnUse" color-interpolation-filters="sRGB">
<feFlood flood-opacity="0" result="BackgroundImageFix"/>
<feColorMatrix in="SourceAlpha" type="matrix" values="0 0 0 0 0 0 0 0 0 0 0 0 0 0 0 0 0 0 127 0" result="hardAlpha"/>
<feOffset dy="0.98264"/>
<feGaussianBlur stdDeviation="1.96528"/>
<feColorMatrix type="matrix" values="0 0 0 0 0 0 0 0 0 0 0 0 0 0 0 0 0 0 0.15 0"/>
<feBlend mode="normal" in2="BackgroundImageFix" result="effect1_dropShadow_16_423"/>
<feBlend mode="normal" in="SourceGraphic" in2="effect1_dropShadow_16_423" result="shape"/>
</filter>
<linearGradient id="paint0_linear_16_423" x1="32.1387" y1="26.2873" x2="48.1158" y2="53.4519" gradientUnits="userSpaceOnUse">
<stop stop-color="white"/>
<stop offset="1" stop-color="#F1E5FC"/>
</linearGradient>
</defs>
</svg>
