<svg width="85" height="85" viewBox="0 0 85 85" fill="none" xmlns="http://www.w3.org/2000/svg">
<path d="M13.6923 17.7225L18.9814 76.7278L42.714 83.2809L66.5128 76.7193L71.8078 17.7225H13.6923ZM59.0586 50.6428L57.5182 64.9174L57.5241 66.1399L42.75 70.2446V70.2452L42.7382 70.255L27.8462 66.196L26.8387 54.8889H34.1415L34.6593 60.6047L42.7527 62.7532L42.75 62.763V62.7421L50.8741 60.4633L51.7315 50.9767H34.7498L34.6043 49.4411L34.2726 45.759L34.0989 43.8042H52.3778L53.0425 36.6317H25.202L25.0558 34.9436L24.7241 31.0118L24.5504 28.8072H60.9936L60.8186 30.9811L59.0586 50.6428ZM59.1372 10.1418L54.4511 4.6816H59.1372V1.42139H48.6494V4.26625L54.149 9.24591H48.6494V12.5061H59.1372V10.1418ZM46.683 10.1418L42.2211 4.6816H46.683V1.42139H36.8506V4.26625L41.9195 9.24591H36.8506V12.5061H46.683V10.1418ZM34.8842 9.24591H29.6403V4.6816H34.8842V1.42139H25.7074V12.5061H34.8842V9.24591Z" fill="#176B87"/>
</svg>
