<svg width="84" height="84" viewBox="0 0 84 84" fill="none" xmlns="http://www.w3.org/2000/svg">
<path d="M40.1114 0H43.3579C51.8253 0.348837 60.1956 3.18843 66.983 8.26515C73.4125 13.0178 78.436 19.6346 81.2244 27.1128C82.8244 31.2773 83.626 35.7065 83.9 40.1482V42.8939C83.6286 50.2573 81.4984 57.5776 77.5223 63.8123C73.0644 70.9162 66.4305 76.6769 58.6926 80.001C53.627 82.186 48.1797 83.3612 42.6592 83.46H41.2539C33.562 83.3355 25.9094 81.0736 19.4288 76.9449C12.0901 72.307 6.24465 65.3485 3.02368 57.3077C1.23949 52.9384 0.289062 48.2634 0 43.5635V40.3314C0.330356 30.9487 3.90201 21.6774 10.1008 14.5788C15.1859 8.67854 21.9582 4.22516 29.422 1.91502C32.8862 0.82808 36.4939 0.267333 40.1114 0ZM16.5119 24.4662C16.4923 32.3903 16.5047 40.3138 16.5047 48.2353C17.442 48.2425 18.3793 48.2425 19.3186 48.2425C19.2695 41.4398 19.3848 34.6392 19.2492 27.8385C19.5638 28.4299 19.8509 29.0382 20.2094 29.6035C24.2753 35.803 28.254 42.056 32.3205 48.2503C33.4597 48.2353 34.5989 48.2353 35.7381 48.2529C35.7362 40.3242 35.7335 32.3955 35.7407 24.4668C34.8122 24.4578 33.8836 24.4552 32.955 24.459C33.0042 31.188 32.8659 37.9169 33.0369 44.6387C28.7718 37.8889 24.4496 31.1775 20.1275 24.4616C18.9223 24.4542 17.7171 24.4557 16.5119 24.4662ZM41.9729 24.459C41.8884 32.3877 41.9703 40.3164 41.9421 48.2425C46.1824 48.2327 50.4226 48.2581 54.6648 48.2295C54.6496 47.3705 54.6548 46.5113 54.6805 45.6526C51.3953 45.6422 48.1081 45.6572 44.8203 45.6396C44.7718 42.8945 44.8177 40.1456 44.7941 37.3999C47.6749 37.349 50.5556 37.4077 53.4332 37.3692C53.4259 36.5366 53.4259 35.7039 53.4207 34.8706C50.5452 34.9626 47.6703 34.8354 44.7921 34.8785C44.8 32.2553 44.8052 29.6296 44.8052 27.0032C47.8853 27.0032 50.9653 26.9902 54.0427 27.011C54.0375 26.1628 54.0427 25.3119 54.0532 24.4642C50.0254 24.4538 45.9975 24.459 41.9729 24.459ZM56.7878 24.4942C56.7905 25.3197 56.7905 26.1425 56.7931 26.9654C59.0794 26.9393 61.363 27.0365 63.6493 26.9882C63.6342 34.0712 63.6519 41.149 63.6421 48.2275C64.5991 48.2555 65.5626 48.2503 66.5196 48.1688C66.4409 44.2618 66.5969 40.3523 66.4173 36.4472C66.4613 34.6874 66.3715 32.9302 66.494 31.1723C66.5635 29.777 66.3125 28.3836 66.4711 26.9882C68.7757 27.0189 71.0823 26.998 73.3863 26.998C73.3758 26.1648 73.3922 25.3315 73.4354 24.4994C67.8843 24.431 62.3338 24.4381 56.7878 24.4942ZM8.8816 45.0514C7.58574 45.6448 7.50118 47.6746 8.78394 48.3292C9.91134 49.0986 11.6057 48.0873 11.5546 46.7578C11.6418 45.4511 10.0536 44.3531 8.8816 45.0514ZM28.041 55.0204C25.2375 57.2822 25.2709 62.3198 28.3687 64.3118C30.1175 65.417 32.3684 65.1881 34.2168 64.452C34.2246 64.0471 34.2345 63.6441 34.2496 63.2392C32.4988 64.1488 30.048 64.3346 28.5634 62.8415C26.6199 60.7308 27.0577 56.7978 29.6206 55.3588C31.0699 54.5998 32.837 54.8215 34.2653 55.5146C34.2607 55.0843 34.2627 54.6539 34.2653 54.2236C32.2353 53.507 29.7281 53.5455 28.041 55.0204ZM39.3196 56.7874C38.0808 56.9308 36.8564 57.5828 36.2828 58.7213C35.4615 60.3488 35.5559 62.5467 36.8491 63.9114C38.183 65.4092 40.7459 65.4242 42.2109 64.1051C43.8004 62.6002 43.98 59.8878 42.7071 58.1299C41.9546 57.0677 40.5617 56.7065 39.3196 56.788M51.044 58.5628C49.9559 60.4426 50.1709 63.2901 52.0914 64.5687C53.5223 65.3642 55.3248 65.1112 56.7282 64.3679C56.7256 63.9656 56.7308 63.5626 56.7485 63.1629C55.6427 63.8606 54.1679 64.3731 52.9389 63.6695C52.0809 63.1988 51.822 62.1979 51.6844 61.3059C53.5688 61.2805 55.4507 61.2525 57.3378 61.2577C57.2886 60.0658 57.2604 58.7187 56.3874 57.7967C54.946 56.2123 52.0324 56.7163 51.044 58.5628ZM45.5289 57.0397V64.8693C45.9562 64.8693 46.3888 64.8693 46.8221 64.8719C46.8372 63.4407 46.7959 62.0069 46.8372 60.5724C46.8477 59.7443 47.1826 58.9045 47.8099 58.3464C48.3349 57.9519 49.0441 58.1703 49.6459 58.186C49.638 57.7713 49.6328 57.3579 49.6308 56.9458C48.4555 56.6863 47.4441 57.3709 46.8503 58.3262C46.8372 57.9134 46.8241 57.5007 46.8169 57.0912C46.3869 57.0756 45.9562 57.058 45.5289 57.0397Z" fill="#176B87"/>
<path d="M38.514 58.1761C39.5969 57.6512 41.151 57.9088 41.7553 59.0238C42.4436 60.2541 42.4285 61.8816 41.6655 63.0735C40.6692 64.5641 38.0427 64.238 37.3899 62.5897C36.7292 61.1174 36.9855 59.014 38.514 58.1755V58.1761ZM51.8083 60.2567C51.8384 59.2304 52.5581 58.2113 53.5951 57.9877C54.2348 57.8807 54.9696 57.9922 55.4127 58.5047C55.8531 58.9703 55.9456 59.6223 56.055 60.2261C54.6392 60.2339 53.2234 60.2059 51.8076 60.2567H51.8083Z" fill="#176B87"/>
</svg>
