<svg width="84" height="84" viewBox="0 0 84 84" fill="none" xmlns="http://www.w3.org/2000/svg">
<path fill-rule="evenodd" clip-rule="evenodd" d="M41.95 0.98584C26.5511 0.98584 14.0631 13.4051 14.0631 28.7265C14.0631 40.9827 22.0532 51.3813 33.1339 55.049C34.5275 55.3059 35.0394 54.4472 35.0394 53.7143C35.0394 53.0531 35.0132 50.8675 35.0014 48.5502C27.2426 50.2279 25.6059 45.277 25.6059 45.277C24.3376 42.0703 22.5094 41.2175 22.5094 41.2175C19.9793 39.4961 22.6995 39.5313 22.6995 39.5313C25.5004 39.7269 26.9752 42.3905 26.9752 42.3905C29.462 46.6313 33.499 45.4048 35.0899 44.6961C35.3409 42.903 36.0632 41.6785 36.8609 40.986C30.6668 40.2851 24.1553 37.9058 24.1553 27.2764C24.1553 24.2477 25.2447 21.7732 27.0289 19.8302C26.7392 19.1312 25.7848 16.3092 27.299 12.4883C27.299 12.4883 29.6403 11.7437 34.9679 15.3331C37.1933 14.7183 39.5792 14.4099 41.9487 14.3994C44.3189 14.4105 46.7061 14.7189 48.9347 15.3331C54.2571 11.7444 56.5958 12.489 56.5958 12.489C58.1139 16.3099 57.1595 19.1312 56.8698 19.8308C58.6579 21.7726 59.7394 24.2477 59.7394 27.277C59.7394 37.9312 53.2155 40.2772 47.0056 40.9632C48.0059 41.8239 48.8973 43.5126 48.8973 46.1012C48.8973 49.8125 48.8658 52.7995 48.8658 53.713C48.8658 54.4498 49.3679 55.3157 50.7811 55.0431C61.8559 51.3709 69.8356 40.9762 69.8356 28.7239C69.8369 13.4057 57.3515 0.98584 41.95 0.98584Z" fill="#176B87"/>
<path d="M24.626 40.8146C24.5637 40.9528 24.3454 40.9939 24.1475 40.8993C23.9443 40.808 23.8315 40.6209 23.8971 40.482C23.9561 40.3412 24.175 40.3014 24.3775 40.3959C24.5807 40.4872 24.6961 40.6763 24.6266 40.8146H24.626ZM25.7553 42.0691C25.6223 42.191 25.3621 42.1343 25.1851 41.94C25.0029 41.7463 24.9688 41.4874 25.1038 41.3636C25.2401 41.241 25.4925 41.2984 25.6741 41.492C25.8576 41.6876 25.8936 41.9439 25.7547 42.0684L25.7553 42.0691ZM26.8546 43.6652C26.6841 43.7839 26.4042 43.6731 26.2319 43.4259C26.0601 43.1801 26.0601 42.8847 26.2351 42.7654C26.4082 42.6468 26.6835 42.7537 26.8578 42.9982C27.0296 43.2492 27.0296 43.5459 26.8546 43.6659V43.6652ZM28.3608 45.2092C28.2081 45.3768 27.8823 45.3318 27.6444 45.103C27.4006 44.8793 27.333 44.5618 27.4858 44.3942C27.6411 44.2266 27.9682 44.2736 28.2081 44.5005C28.4506 44.7235 28.524 45.0417 28.3608 45.2086V45.2092ZM30.44 46.1051C30.3718 46.3229 30.0585 46.4214 29.7425 46.3294C29.4266 46.2342 29.2208 45.9799 29.2837 45.7609C29.3493 45.5418 29.6652 45.4394 29.9831 45.5379C30.2977 45.6318 30.5042 45.8834 30.4393 46.1051H30.44ZM32.721 46.2714C32.7295 46.4996 32.4614 46.69 32.1298 46.6939C31.7968 46.7017 31.5267 46.5166 31.5228 46.291C31.5228 46.0601 31.785 45.8724 32.118 45.8671C32.4496 45.8606 32.721 46.0445 32.721 46.2714ZM34.8447 45.9121C34.884 46.1351 34.6546 46.3646 34.3249 46.4253C34.0011 46.4853 33.7022 46.347 33.6603 46.1253C33.621 45.8971 33.855 45.6689 34.1781 45.6089C34.5078 45.5516 34.8028 45.6859 34.8447 45.9128V45.9121Z" fill="#176B87"/>
<path d="M16.2917 70.6163H9.27816C9.19124 70.6163 9.10788 70.6507 9.04642 70.7118C8.98496 70.7729 8.95043 70.8559 8.95043 70.9423V74.3538C8.95043 74.4402 8.98496 74.5231 9.04642 74.5843C9.10788 74.6454 9.19124 74.6798 9.27816 74.6798H12.0134V78.918C12.0134 78.918 11.3993 79.1266 9.69963 79.1266C7.69652 79.1266 4.89701 78.399 4.89701 72.2751C4.89701 66.1506 7.81253 65.344 10.5498 65.344C12.9186 65.344 13.9385 65.7587 14.5888 65.9589C14.792 66.0201 14.9821 65.818 14.9821 65.6381L15.764 62.342C15.7653 62.2927 15.7545 62.2438 15.7326 62.1995C15.7107 62.1552 15.6783 62.1168 15.6382 62.0877C15.374 61.9 13.7655 61.0054 9.70094 61.0054C5.01827 61.0054 0.214996 62.9862 0.214996 72.5137C0.214996 82.0399 5.71438 83.4594 10.3485 83.4594C14.1857 83.4594 16.5132 81.828 16.5132 81.828C16.6089 81.7758 16.6194 81.6422 16.6194 81.5802V70.9417C16.6194 70.8552 16.5849 70.7723 16.5234 70.7112C16.462 70.65 16.3786 70.6157 16.2917 70.6157V70.6163ZM52.1137 61.8191H48.1638C48.1208 61.8193 48.0781 61.8279 48.0384 61.8445C47.9986 61.8611 47.9626 61.8853 47.9323 61.9157C47.9019 61.9462 47.8779 61.9823 47.8617 62.022C47.8454 62.0617 47.8372 62.1042 47.8374 62.1471L47.8387 69.7393H41.6826V62.1471C41.6828 62.1043 41.6746 62.0618 41.6584 62.0222C41.6422 61.9825 41.6182 61.9464 41.588 61.916C41.5577 61.8855 41.5217 61.8613 41.4821 61.8447C41.4424 61.8281 41.3998 61.8194 41.3568 61.8191H37.4076C37.3645 61.8193 37.3219 61.8279 37.2821 61.8445C37.2424 61.8611 37.2063 61.8853 37.176 61.9157C37.1457 61.9462 37.1217 61.9823 37.1054 62.022C37.0892 62.0617 37.0809 62.1042 37.0812 62.1471V82.7056C37.0812 82.8862 37.228 83.0336 37.4076 83.0336H41.3568C41.3999 83.0333 41.4425 83.0246 41.4822 83.008C41.5219 82.9913 41.5579 82.967 41.5882 82.9365C41.6185 82.906 41.6424 82.8698 41.6586 82.8301C41.6748 82.7904 41.6829 82.7478 41.6826 82.705V73.9117H47.8387L47.8282 82.705C47.8282 82.8862 47.9751 83.0336 48.156 83.0336H52.1137C52.1568 83.0333 52.1994 83.0246 52.2391 83.008C52.2788 82.9913 52.3148 82.967 52.3451 82.9365C52.3754 82.906 52.3993 82.8698 52.4155 82.8301C52.4317 82.7904 52.4398 82.7478 52.4395 82.705V62.1464C52.4399 62.1036 52.4318 62.0611 52.4156 62.0214C52.3994 61.9817 52.3755 61.9456 52.3452 61.9152C52.3149 61.8847 52.2789 61.8606 52.2391 61.8441C52.1994 61.8276 52.1568 61.8191 52.1137 61.8191ZM21.1979 62.2866C19.7925 62.2866 18.652 63.4296 18.652 64.8445C18.652 66.2575 19.7925 67.4038 21.1979 67.4038C22.6045 67.4038 23.7444 66.2575 23.7444 64.8445C23.7444 63.4296 22.6038 62.2866 21.1979 62.2866ZM23.1354 68.5513H19.1987C19.0178 68.5513 18.8565 68.7365 18.8565 68.9165V82.5126C18.8565 82.9123 19.1069 83.031 19.4307 83.031H22.9768C23.3668 83.031 23.4619 82.8406 23.4619 82.5061V68.8793C23.462 68.8365 23.4537 68.7941 23.4374 68.7544C23.4211 68.7148 23.3971 68.6788 23.3668 68.6484C23.3365 68.618 23.3004 68.5938 23.2607 68.5773C23.2211 68.5608 23.1785 68.5522 23.1354 68.552V68.5513ZM67.4491 68.582H63.5293C63.4863 68.5823 63.4438 68.5911 63.4041 68.6078C63.3645 68.6245 63.3286 68.6488 63.2984 68.6793C63.2682 68.7098 63.2443 68.746 63.2282 68.7856C63.212 68.8253 63.2039 68.8678 63.2042 68.9106V78.991C63.2042 78.991 62.2079 79.7148 60.7954 79.7148C59.3828 79.7148 59.0079 79.0777 59.0079 77.7013V68.9106C59.0083 68.8677 59.0001 68.8252 58.9839 68.7855C58.9677 68.7458 58.9438 68.7096 58.9136 68.6791C58.8833 68.6486 58.8473 68.6243 58.8076 68.6076C58.7679 68.5909 58.7252 68.5822 58.6822 68.582H54.7048C54.6177 68.5827 54.5345 68.6176 54.4733 68.6792C54.4122 68.7408 54.378 68.824 54.3783 68.9106V78.3664C54.3783 82.4546 56.6692 83.4548 59.82 83.4548C62.4052 83.4548 64.4896 82.0334 64.4896 82.0334C64.4896 82.0334 64.5879 82.7832 64.6338 82.8712C64.6797 82.9599 64.7957 83.0492 64.9222 83.0492L67.4523 83.0382C67.4955 83.038 67.5383 83.0294 67.5781 83.0127C67.618 82.9961 67.6542 82.9719 67.6846 82.9414C67.715 82.9109 67.7391 82.8747 67.7555 82.8349C67.7719 82.7951 67.7802 82.7525 67.7801 82.7095L67.7781 68.9086C67.7777 68.8222 67.7431 68.7393 67.6818 68.678C67.6205 68.6168 67.5373 68.582 67.4504 68.5813L67.4491 68.582ZM78.1607 68.1203C75.9347 68.1203 74.4206 69.1082 74.4206 69.1082V62.1464C74.4209 62.1036 74.4127 62.0612 74.3964 62.0215C74.3802 61.9819 74.3563 61.9458 74.326 61.9153C74.2958 61.8849 74.2598 61.8606 74.2201 61.844C74.1805 61.8274 74.1379 61.8187 74.0948 61.8185H70.1352C70.092 61.8185 70.0492 61.827 70.0093 61.8435C69.9694 61.86 69.9332 61.8842 69.9027 61.9146C69.8723 61.9451 69.8482 61.9813 69.8318 62.0211C69.8154 62.0608 69.8072 62.1034 69.8074 62.1464V82.705C69.8072 82.748 69.8154 82.7906 69.8318 82.8303C69.8482 82.8701 69.8723 82.9063 69.9027 82.9368C69.9332 82.9672 69.9694 82.9914 70.0093 83.0079C70.0492 83.0244 70.092 83.0329 70.1352 83.0329H72.8829C73.0074 83.0329 73.1005 82.9697 73.1693 82.8582C73.2368 82.7474 73.3358 81.9101 73.3358 81.9101C73.3358 81.9101 74.9548 83.4359 78.0211 83.4359C81.6196 83.4359 83.6843 81.6206 83.6843 75.2842C83.6843 68.9478 80.3873 68.1197 78.1601 68.1197L78.1607 68.1203ZM76.6138 79.703C75.255 79.6619 74.3328 79.0484 74.3328 79.0484V72.5379C74.3328 72.5379 75.2426 71.9836 76.3582 71.8832C77.7694 71.7574 79.1295 72.1818 79.1295 75.5307C79.1295 79.0627 78.5166 79.7597 76.6145 79.7024L76.6138 79.703ZM34.8677 79.6261C34.6953 79.6261 34.2535 79.6958 33.7992 79.6958C32.3441 79.6958 31.8505 79.023 31.8505 78.1518V72.3709H34.8133C34.8565 72.3709 34.8994 72.3624 34.9393 72.3459C34.9792 72.3293 35.0155 72.3051 35.0459 72.2745C35.0764 72.244 35.1005 72.2077 35.1168 72.1679C35.1331 72.128 35.1413 72.0853 35.141 72.0423V68.876C35.1412 68.8331 35.1328 68.7906 35.1164 68.7509C35.1 68.7112 35.0759 68.6751 35.0455 68.6447C35.015 68.6143 34.9788 68.5901 34.939 68.5737C34.8991 68.5572 34.8564 68.5487 34.8133 68.5487H31.8505L31.846 64.6561C31.846 64.5081 31.7699 64.4344 31.5982 64.4344H27.5605C27.4045 64.4344 27.3199 64.5035 27.3199 64.6528V68.6759C27.3199 68.6759 25.2965 69.1616 25.1602 69.2008C25.0921 69.2205 25.0323 69.2617 24.9897 69.3181C24.9472 69.3745 24.9242 69.4432 24.9242 69.5137V72.0417C24.9239 72.0845 24.9322 72.1269 24.9484 72.1666C24.9646 72.2062 24.9886 72.2423 25.0188 72.2728C25.0491 72.3032 25.085 72.3274 25.1247 72.3441C25.1644 72.3607 25.2069 72.3694 25.25 72.3696H27.3199V78.4518C27.3199 82.9704 30.5055 83.4137 32.6555 83.4137C33.6367 83.4137 34.8119 83.1008 35.006 83.029C35.124 82.9853 35.1915 82.8647 35.1915 82.7337L35.1941 79.9528C35.1927 79.8666 35.1578 79.7843 35.0967 79.7232C35.0355 79.6622 34.953 79.6271 34.8664 79.6254L34.8677 79.6261Z" fill="#176B87"/>
</svg>
