<svg width="85" height="84" viewBox="0 0 85 84" fill="none" xmlns="http://www.w3.org/2000/svg">
<path d="M13.6261 18.0665L18.927 76.6976L42.714 83.0107L66.5672 76.8169L71.8741 18.0665H13.6261ZM60.8481 31.4145L60.5158 35.2185L60.3696 36.9758H32.4661L33.1328 44.8003H59.7062L59.5286 46.255L57.8145 65.1049L57.6886 66.2069L42.7501 70.2065V70.2032L42.7324 70.2111L27.8023 66.3536L26.7889 55.233H34.1094L34.6279 60.7493L42.7461 62.796L42.7501 62.6434V62.6513L50.886 60.924L51.7355 51.9728H26.4632L24.6711 31.8664L24.4961 29.8033H61.0225L60.8481 31.4145ZM19.1237 1.52222H22.8088V5.14497H26.1807V1.52222H29.8665V12.4909H26.1807V8.81793H22.8095V12.4909H19.1237V1.52222ZM34.7125 5.15997H31.4678V1.52222H41.6443V5.15997H38.3983V12.4909H34.7125V5.15997ZM43.2594 1.52222H47.1019L49.4662 5.37644L51.8279 1.52222H55.6724V12.4909H52.001V7.05415L49.4662 10.954H49.402L46.8652 7.05415V12.4909H43.2587V1.52222H43.2594ZM57.5071 1.52222H61.1935V8.86553H66.3765V12.4915H57.5071V1.52222Z" fill="#176B87"/>
</svg>
