<svg width="84" height="84" viewBox="0 0 84 84" fill="none" xmlns="http://www.w3.org/2000/svg">
<path d="M35.1299 44.2188C26.462 46.6274 40.4025 51.6031 51.4379 46.9C49.6308 46.2016 48.3343 45.3944 48.3343 45.3944C43.413 46.3197 41.1307 46.3927 36.6637 45.8854C32.9767 45.4655 35.1299 44.2188 35.1299 44.2188ZM50.1165 39.5196C43.5946 40.7683 39.827 40.7285 35.0545 40.2388C31.3649 39.8593 33.7803 38.0799 33.7803 38.0799C24.2347 41.2319 39.0935 44.8076 52.4342 40.926C51.0171 40.4299 50.1165 39.5196 50.1165 39.5196ZM55.2285 12.3097C55.2285 12.3097 35.9322 17.1028 45.1474 27.6663C47.8682 30.7817 44.4342 33.5829 44.4342 33.5829C44.4342 33.5829 51.3383 30.0378 48.1678 25.5968C45.2064 21.457 42.9359 19.4012 55.2285 12.3097ZM24.567 53.0134C47.0653 56.6407 65.5777 51.3794 59.7434 48.7602C59.7434 48.7602 61.3368 50.0675 57.9874 51.0782C51.6195 52.9971 31.4776 53.5761 25.8832 51.1545C23.8735 50.284 27.6444 49.0764 28.8302 48.8228C30.067 48.5561 30.7736 48.605 30.7736 48.605C28.5372 47.0375 16.3173 51.6813 24.567 53.0134ZM52.0102 35.1347C53.0917 34.4005 54.5861 33.7628 54.5861 33.7628C54.5861 33.7628 50.3308 34.5198 46.0906 34.8739C40.9006 35.3068 35.3331 35.3923 32.5381 35.0206C25.9212 34.1404 36.1655 31.7194 36.1655 31.7194C36.1655 31.7194 32.1868 31.4514 27.295 33.8052C21.5092 36.5887 41.6052 37.8569 52.0102 35.1347ZM54.5435 41.9367C54.495 42.0671 54.3325 42.2138 54.3325 42.2138C68.4552 38.5207 63.2626 29.196 56.5099 31.5564C55.9181 31.7644 55.6067 32.2495 55.6067 32.2495C55.6067 32.2495 55.981 32.0995 56.8161 31.9261C60.2291 31.2193 65.1202 36.472 54.5435 41.9367ZM42.6094 31.6183C40.5257 26.9328 33.461 22.8348 42.6127 15.6448C54.0244 6.68463 48.1685 0.855469 48.1685 0.855469C50.5308 10.1124 39.8368 12.9089 35.9767 18.6742C33.3483 22.602 37.2674 26.8239 42.6094 31.6183ZM54.9257 54.8639C46.261 56.4861 35.5736 56.2977 29.2372 55.257C29.2372 55.257 30.535 56.3264 37.2057 56.7528C47.355 57.3983 62.9453 56.3935 63.3144 51.6161C63.3144 51.6155 62.6052 53.4261 54.9257 54.8639ZM33.5148 64.8999C31.6225 64.8999 30.0074 65.3655 28.6591 65.9575L29.0681 67.583C30.1293 67.1951 31.4396 66.8352 32.7872 66.8352C34.6553 66.8352 35.3953 67.583 35.3953 69.131V70.4194H34.6088C30.0723 70.4194 28.0252 72.1049 28.0252 74.7384C28.0252 77.0069 29.3749 78.264 31.9141 78.264C33.5463 78.264 34.7661 77.713 35.9046 76.7317L36.1118 78.2438H38.0172V68.7945C38.0172 66.4479 36.7561 64.8999 33.5148 64.8999ZM35.3953 75.0077C34.7399 75.8332 33.4991 76.2974 32.5906 76.2974C31.2973 76.2974 30.632 75.4035 30.632 74.1653C30.632 72.8247 31.4199 71.7234 34.4298 71.7234H35.3953V75.0077ZM45.6279 75.4276L45.0805 73.0751L42.6186 65.2031H39.7411L43.7073 78.2438H47.0017C48.8921 73.6795 50.2417 69.1153 50.9909 65.2031H48.1914C47.7516 68.4633 46.87 71.9999 45.6279 75.4276ZM57.6911 64.8999C55.7975 64.8999 54.1444 65.3655 52.7967 65.9575L53.1874 67.583C54.2499 67.1951 55.627 66.8352 56.9747 66.8352C58.8401 66.8352 59.6477 67.583 59.6477 69.131V70.4194H58.7117C54.1739 70.4194 52.1275 72.1049 52.1275 74.7384C52.1275 77.0069 53.4751 78.264 56.0144 78.264C57.6478 78.264 58.865 77.713 60.0069 76.7317L60.2153 78.2438H62.2696V68.7945C62.2696 66.4479 60.9298 64.8999 57.6911 64.8999ZM56.7662 76.2857C55.4717 76.2857 54.7697 75.397 54.7697 74.1594C54.7697 72.8195 55.5228 71.7234 58.5294 71.7234H59.6477V74.9836H59.6038C58.6435 75.6356 57.6721 76.2857 56.7662 76.2857ZM23.5969 75.2268C23.5969 77.3596 23.3052 78.2509 22.9552 78.944C22.5521 79.7219 21.6095 80.5578 20.5948 81.0755L21.8625 82.6045C23.1944 82.1162 24.447 81.2496 25.2002 80.1549C25.954 79.0314 26.2188 77.8786 26.2188 75.0253V60.6389H23.5969V75.2268Z" fill="#176B87"/>
</svg>
