<svg width="85" height="85" viewBox="0 0 85 85" fill="none" xmlns="http://www.w3.org/2000/svg">
<path d="M2.10974 1.42139V82.9268H84.0457V1.42139H2.10974ZM45.4499 70.8725C44.2406 73.317 41.9319 74.923 39.2569 75.6982C35.1463 76.6372 31.2147 76.1019 28.2899 74.3557C26.3326 73.1611 24.804 71.3224 23.7664 69.2039L30.0066 65.4025C30.0611 65.4253 30.2249 65.72 30.4439 66.1008C31.2396 67.4271 31.9259 68.366 33.2749 69.0252C34.6003 69.4751 37.51 69.7627 38.6335 67.4427C39.3198 66.2625 39.1015 62.4689 39.1015 58.2717C39.1009 51.6763 39.1317 45.1083 39.1317 38.5879H46.8068C46.8068 45.7603 46.8461 52.5533 46.8068 59.5523C46.8232 63.8428 47.1975 67.6677 45.4499 70.8725ZM77.2896 68.7155C74.6218 77.7933 59.7474 78.088 53.8035 72.0905C52.5476 70.6788 51.7603 69.9414 51.0111 68.3119C54.1699 66.5044 54.1699 66.5044 57.2435 64.7354C58.913 67.2882 60.4567 68.692 63.234 69.2665C67.0017 69.7242 70.7924 68.4364 69.9422 64.4557C69.0685 61.2046 62.2271 60.4137 57.5712 56.937C52.8445 53.7792 51.7367 46.1059 55.6211 41.7216C56.9157 40.0999 59.1234 38.8897 61.4399 38.3081L63.8573 37.9971C68.4988 37.9039 71.4 39.1232 73.5297 41.4888C74.1223 42.0861 74.606 42.7303 75.5106 44.1263C73.0381 45.6938 73.046 45.6788 69.5044 47.9597C68.7479 46.3387 67.4927 45.3215 66.166 44.8794C64.1064 44.2587 61.5094 44.9335 60.9706 47.0983C60.7838 47.7654 60.8224 48.3861 61.1194 49.4881C61.9538 51.3809 64.7541 52.2038 67.2659 53.3521C74.4966 56.2693 76.9383 59.3972 77.5387 63.1203C78.1168 66.3258 77.3991 68.4051 77.2896 68.7155Z" fill="#176B87"/>
</svg>
