<svg width="85" height="85" viewBox="0 0 85 85" fill="none" xmlns="http://www.w3.org/2000/svg">
<path d="M32.2366 52.2937L32.3631 52.355L32.5886 52.4633C32.8763 52.5995 33.1667 52.7345 33.4597 52.8643L33.6439 52.9458C33.9802 53.0925 34.3184 53.232 34.6606 53.3663L34.9084 53.4628C35.2243 53.5854 35.5455 53.7041 35.8673 53.8169L35.9879 53.858C36.3413 53.9806 36.6978 54.0947 37.0577 54.2062L37.3166 54.2825C37.6824 54.3927 38.0436 54.5237 38.4211 54.5935C62.3818 58.9394 69.3411 40.2701 69.3411 40.2701C63.4955 47.8455 53.1198 49.844 43.2888 47.6192C42.9165 47.5358 42.5546 47.4197 42.1915 47.3128L41.9181 47.2306C41.5641 47.1225 41.2118 47.0086 40.8615 46.889L40.7166 46.8368C40.4045 46.7268 40.0939 46.6123 39.7852 46.4932L39.5243 46.3914C39.1865 46.2592 38.8512 46.1205 38.5188 45.9754L38.3176 45.8868C38.0333 45.7592 37.7505 45.6284 37.4693 45.4942L37.2235 45.3769C37.0033 45.2699 36.785 45.1558 36.5674 45.0443L36.1295 44.8161C35.8649 44.6746 35.6029 44.5283 35.3436 44.3773L35.0781 44.2299C34.7334 44.027 34.3918 43.8188 34.0536 43.6053L33.7776 43.4227C33.5321 43.266 33.2891 43.1054 33.0487 42.9408L32.8141 42.7765C32.582 42.6135 32.3526 42.4485 32.1252 42.281L31.8197 42.0508C31.6105 41.8926 31.4034 41.7317 31.1983 41.5683L30.921 41.3466C30.6601 41.1335 30.4018 40.9172 30.1462 40.6978L30.0617 40.6267C29.7857 40.3864 29.5139 40.1414 29.2463 39.8919L29.0168 39.6721C28.8182 39.485 28.6235 39.2959 28.4315 39.1022L28.2021 38.874C27.9588 38.6262 27.7195 38.3745 27.4843 38.119L27.4489 38.0811C27.2009 37.811 26.9581 37.5363 26.7207 37.257L26.5299 37.0314C26.3529 36.8194 26.1773 36.6043 26.0062 36.3871L25.8141 36.1498C25.6086 35.8856 25.4069 35.6184 25.2091 35.3484C19.7515 27.9425 17.7903 17.7283 22.1526 9.33973L18.2858 14.2183C13.331 21.3015 13.9485 30.5174 17.7326 38.0446L18.0099 38.58L18.1875 38.919L18.2976 39.114L18.4949 39.4654C18.6123 39.6715 18.7322 39.8762 18.8555 40.081L19.0619 40.4194C19.1983 40.6385 19.3379 40.8549 19.4815 41.0714L19.6597 41.3466C19.857 41.6387 20.0589 41.9308 20.2667 42.2177L20.2844 42.2405L20.3867 42.3781C20.5669 42.6252 20.7524 42.8691 20.9399 43.1104L21.1484 43.3738C21.3155 43.5831 21.4866 43.7917 21.6596 43.9991L21.855 44.2306C22.0877 44.5038 22.325 44.775 22.5675 45.0404L22.5819 45.0554L22.6094 45.0854C22.8454 45.3423 23.0879 45.5927 23.3331 45.8444L23.5651 46.0772C23.7552 46.2676 23.9479 46.4547 24.1433 46.6412L24.3799 46.8648C24.6401 47.1087 24.903 47.348 25.1717 47.5827L25.1849 47.5925L25.3225 47.7099C25.5591 47.9133 25.8004 48.1161 26.0429 48.315L26.3411 48.551C26.5391 48.7088 26.7397 48.8646 26.9416 49.0179L27.2621 49.2604C27.485 49.4234 27.7091 49.5838 27.9353 49.741L28.1811 49.9144L28.2486 49.962C28.4636 50.1094 28.6832 50.2502 28.9028 50.3917L29.1859 50.5795C29.5222 50.7914 29.8644 51.0007 30.2098 51.2029L30.493 51.362C30.7473 51.5074 31.0023 51.6502 31.2612 51.7897L31.686 52.0088L32.2366 52.2937ZM34.6573 28.3018C35.1942 29.0673 35.7887 29.9776 36.5012 30.5931C36.7595 30.8761 37.0295 31.1512 37.3048 31.4231L37.5172 31.6305C37.7853 31.8887 38.0573 32.1423 38.3379 32.3895L38.372 32.4181L38.3798 32.4266C38.6912 32.6979 39.0124 32.9587 39.3388 33.2156L39.5571 33.3851C39.8848 33.6349 40.2185 33.88 40.5606 34.1141L40.5901 34.1356L41.0477 34.4356L41.2653 34.579C41.5098 34.7342 41.7569 34.8868 42.0093 35.0315L42.1141 35.0922C42.3311 35.2167 42.5513 35.3393 42.7716 35.458L43.0049 35.5799L43.4651 35.8166L43.5346 35.8479C43.8505 36.0024 44.1691 36.1511 44.4942 36.2926L44.7059 36.3793C44.9655 36.4889 45.2284 36.5964 45.4919 36.6969L45.8288 36.8194C46.0687 36.9081 46.3086 36.989 46.5511 37.0692L46.8782 37.1735C47.223 37.2798 47.5632 37.4141 47.9224 37.4734C66.4216 40.523 70.6927 26.3535 70.6927 26.3535C66.8424 31.8691 59.3869 34.5001 51.4306 32.4462C51.079 32.3544 50.7297 32.2539 50.3831 32.1449L50.0678 32.0439C49.822 31.965 49.5775 31.8809 49.335 31.7928L49.0046 31.6703C48.7398 31.5691 48.4767 31.4637 48.2154 31.354L48.003 31.264C47.6777 31.1232 47.356 30.9743 47.0382 30.8174L46.5538 30.5722L46.2745 30.4294C46.0687 30.3186 45.8642 30.2025 45.6623 30.0858L45.5161 30.003C45.266 29.8578 45.0186 29.708 44.7741 29.5537L44.5506 29.4044L44.0708 29.0888C43.7315 28.8548 43.3982 28.6123 43.0711 28.3618L42.8463 28.1851C39.3637 25.4511 36.6034 21.7123 35.2905 17.4733C33.9153 13.0785 34.2116 8.14388 36.5943 4.13969L33.6669 8.25147C30.084 13.3798 30.2786 20.2465 33.0736 25.6708C33.5411 26.5824 34.0702 27.4614 34.6573 28.3018ZM54.1561 21.9568L54.6156 22.1152L54.8181 22.1791C55.0364 22.2469 55.2521 22.3265 55.4769 22.3682C65.6914 24.3315 68.4628 17.1538 69.2002 16.0975C66.7729 19.5735 62.6945 20.4075 57.6898 19.1993C57.2801 19.0956 56.8758 18.9715 56.4785 18.8276C55.9893 18.6547 55.5095 18.4566 55.041 18.2343C54.1517 17.8086 53.3072 17.296 52.52 16.7039C48.0417 13.3231 45.2598 6.87631 48.182 1.62476L46.6009 3.79215C44.489 6.88479 44.2812 10.7253 45.7468 14.1394C47.2925 17.7648 50.4598 20.6077 54.1561 21.9568ZM44.2963 63.5578H41.5262C41.4478 63.5608 41.3725 63.5889 41.3114 63.6379C41.2504 63.6868 41.2068 63.7541 41.1873 63.8297L40.204 68.3549L39.2208 72.88C39.2015 72.9556 39.1581 73.0229 39.0971 73.0719C39.0362 73.1209 38.9609 73.149 38.8826 73.1519H36.922C34.9824 73.1519 35.2066 71.8172 35.6038 69.9889L35.6156 69.9335L35.6589 69.7026L35.6668 69.6596L35.7552 69.1901L35.8503 68.6874L35.9512 68.1756L36.3983 66.0029L36.846 63.8303C36.8545 63.7971 36.8551 63.7624 36.8477 63.729C36.8404 63.6955 36.8252 63.6643 36.8034 63.6377C36.7817 63.6111 36.754 63.59 36.7226 63.576C36.6911 63.562 36.6569 63.5555 36.6225 63.5571H33.7796C33.7013 63.56 33.6261 63.5881 33.5653 63.6373C33.5045 63.6865 33.4614 63.754 33.4427 63.8297L32.8311 66.7143L32.2202 69.5996L32.2189 69.6035L32.1625 69.8722C31.4585 73.0691 31.6447 76.1187 35.4714 76.2146L35.5829 76.2165H41.5891C41.6674 76.2136 41.7427 76.1855 41.8036 76.1365C41.8646 76.0875 41.908 76.0202 41.9273 75.9446L43.2226 69.8878L44.5178 63.8303C44.5499 63.6804 44.4503 63.5584 44.2963 63.5578ZM14.6315 63.5258H11.59C11.5115 63.5289 11.4359 63.5568 11.3745 63.6056C11.313 63.6544 11.2689 63.7215 11.2485 63.7971L10.9601 65.0633L10.6717 66.3296C10.6383 66.4789 10.7359 66.6009 10.89 66.6009H13.955C14.0335 66.598 14.109 66.57 14.1702 66.521C14.2314 66.472 14.275 66.4046 14.2946 66.329L14.5732 65.0633L14.8517 63.7977C14.8839 63.6484 14.7855 63.5258 14.6315 63.5258ZM13.7492 67.4668H10.6835C10.605 67.4699 10.5295 67.4979 10.468 67.5467C10.4066 67.5955 10.3624 67.6625 10.342 67.738L9.91133 69.6355L9.48133 71.5323L9.36138 72.0761L8.94776 74.0126L8.53481 75.9499C8.50269 76.0992 8.43648 76.3404 8.38732 76.4852C8.38732 76.4852 7.81443 78.1805 6.85151 78.1609L6.7309 78.1583L5.89778 78.1433H5.89712C5.81886 78.1452 5.74325 78.172 5.68143 78.2197C5.6196 78.2675 5.57481 78.3337 5.55365 78.4087L5.23574 79.7382L4.91848 81.0671C4.88243 81.2158 4.97944 81.3383 5.13217 81.341C5.67819 81.3475 6.90133 81.3612 7.64138 81.3612C10.0464 81.3612 11.3147 80.0356 12.1269 76.2211L13.078 71.8433L13.9701 67.7374C14.0022 67.5894 13.9026 67.4668 13.7492 67.4668ZM70.1979 66.4405L70.0707 65.9182L69.9455 65.3835L69.8819 65.1136C69.6328 64.1505 68.902 63.5956 67.3144 63.5956L64.8432 63.593L62.5673 63.5897H60.0063C59.9281 63.5926 59.8528 63.6207 59.792 63.6697C59.7311 63.7187 59.6879 63.7861 59.6687 63.8616L59.5554 64.3937L59.4216 65.0223L59.3843 65.199L58.2313 70.5718L57.1366 75.6721C57.1038 75.8221 57.0933 76.0059 57.1117 76.0803C57.1301 76.1553 57.4257 76.2165 57.5791 76.2165H59.889C60.043 76.2165 60.2377 76.1892 60.3216 76.1553C60.4055 76.1213 60.5294 75.8208 60.5602 75.6714L60.9705 73.6508L61.3815 71.6294L61.3822 71.6262L61.4373 71.3569L61.9354 69.0356L62.3753 66.9856C62.3947 66.9102 62.438 66.843 62.4988 66.794C62.5596 66.745 62.6347 66.7169 62.7128 66.7137L69.9815 66.7104C70.1356 66.7117 70.2326 66.5898 70.1979 66.4405ZM79.5549 61.7197L78.9951 61.7216H76.6688C76.5836 61.7264 76.5004 61.7494 76.4249 61.7892C76.3495 61.8289 76.2835 61.8844 76.2316 61.9518L71.0867 69.449C71.0002 69.5755 70.9012 69.5572 70.8671 69.4086L70.4882 67.7569C70.4678 67.6813 70.4236 67.6141 70.362 67.5653C70.3004 67.5165 70.2248 67.4886 70.1461 67.4857H66.8391C66.6851 67.4857 66.594 67.6057 66.6359 67.7524L68.118 72.9172C68.1599 73.0646 68.1632 73.3058 68.1252 73.4545L67.4795 75.9538C67.4409 76.1024 67.5353 76.2231 67.6893 76.2231H70.9582C71.0373 76.2199 71.1134 76.1922 71.1759 76.1439C71.2384 76.0956 71.2842 76.0292 71.3069 75.9538L71.9532 73.4545C72.0044 73.2783 72.0848 73.1119 72.1912 72.9622L80.5434 61.9355C80.6365 61.8129 80.586 61.7132 80.4326 61.7145L79.5549 61.7197ZM53.2791 68.1873V68.1847C53.2677 68.2634 53.2286 68.3356 53.1687 68.3883C53.1087 68.441 53.0319 68.4707 52.952 68.4722H48.7588C48.6133 68.4722 48.5399 68.3744 48.5615 68.2531L48.5654 68.2434L48.5628 68.2447L48.5648 68.231L48.5838 68.1599C48.9843 67.101 49.7997 66.4059 51.3329 66.4059C53.0595 66.4053 53.3964 67.2438 53.2791 68.1873ZM52.0487 63.3726C46.6665 63.3726 45.3909 66.6224 44.6751 69.9028C43.96 73.2465 44.0209 76.3717 49.5913 76.3717H50.2664L50.4342 76.3711H50.4736L51.1422 76.3691H51.154C52.6249 76.3633 54.1004 76.3522 54.6975 76.3476C54.7753 76.3437 54.8498 76.3149 54.9099 76.2656C54.97 76.2163 55.0125 76.149 55.0312 76.0737L55.2567 74.9777L55.3006 74.7645L55.5693 73.4564C55.5779 73.4233 55.5785 73.3886 55.5711 73.3552C55.5637 73.3217 55.5486 73.2905 55.5268 73.264C55.5051 73.2375 55.4773 73.2164 55.4459 73.2025C55.4145 73.1886 55.3802 73.1822 55.3458 73.1839H50.3385C48.3465 73.1839 47.7553 72.6577 47.9735 71.1097H55.9777L55.977 71.1104L55.9823 71.1097C56.0456 71.107 56.1068 71.0862 56.1585 71.0498C56.2103 71.0133 56.2504 70.9629 56.274 70.9044L56.293 70.8352L56.2923 70.8359C57.4807 66.3766 57.1399 63.3733 52.0487 63.3726ZM26.6092 68.1703L26.5332 68.437V68.4377L25.9288 70.5686L25.3245 72.6988C25.2998 72.7743 25.2524 72.8404 25.1888 72.8883C25.1251 72.9362 25.0483 72.9636 24.9685 72.9668H21.7698C19.3431 72.9668 18.7519 71.0784 19.3431 68.2942C19.9337 65.4461 21.092 63.6758 23.4806 63.4965C26.7449 63.2513 27.3978 65.5348 26.6092 68.1703ZM28.8038 72.8031C28.8038 72.8031 30.3121 69.1595 30.6542 67.056C31.1216 64.2398 29.7038 60.1541 24.2278 60.1541C18.7834 60.1541 16.4184 64.054 15.5164 68.2942C14.6145 72.5651 15.7963 76.3098 21.21 76.2791L25.4811 76.2635L29.4724 76.2492C29.5515 76.2452 29.6275 76.2172 29.6901 76.169C29.7527 76.1207 29.7989 76.0544 29.8224 75.9792L30.5179 73.341C30.5566 73.1924 30.4628 73.0711 30.3088 73.0698L29.6422 73.0659L28.9755 73.062C28.8451 73.0613 28.7704 72.9765 28.7861 72.865L28.8038 72.8031ZM55.7575 70.3638C55.7575 70.3878 55.7528 70.4115 55.7436 70.4337C55.7344 70.4559 55.7209 70.476 55.7039 70.493C55.6869 70.51 55.6667 70.5235 55.6445 70.5327C55.6222 70.5419 55.5983 70.5467 55.5742 70.5467C55.5501 70.5467 55.5263 70.5421 55.504 70.5329C55.4817 70.5238 55.4614 70.5104 55.4444 70.4935C55.4273 70.4765 55.4137 70.4564 55.4045 70.4343C55.3952 70.4122 55.3904 70.3884 55.3904 70.3645C55.3903 70.316 55.4095 70.2696 55.4439 70.2353C55.4783 70.201 55.5249 70.1816 55.5736 70.1816C55.6223 70.1815 55.669 70.2006 55.7035 70.2348C55.7379 70.269 55.7574 70.3154 55.7575 70.3638Z" fill="#176B87"/>
</svg>
