<svg width="108" height="105" viewBox="0 0 108 105" fill="none" xmlns="http://www.w3.org/2000/svg">
<path fill-rule="evenodd" clip-rule="evenodd" d="M66.2748 33.3191C64.5679 28.0325 61.83 23.3535 57.972 19.3272C56.9966 18.3087 55.9125 17.3757 55.2321 16.1088C54.8021 15.3068 54.3924 14.4937 53.9736 13.6865L53.7075 13.0208L53.6334 13.2829C53.5987 14.6 52.8488 15.4926 51.9154 16.3266C50.8641 17.2642 49.8861 18.2826 48.8767 19.2666L45.7724 23.3281L43.2626 27.9197L41.5839 32.4285L41.5335 32.4982C40.6099 35.5165 40.1544 38.6202 39.9308 41.7538C39.8463 42.932 39.9433 44.1266 40.0095 45.3106C40.1045 47.0033 40.4002 48.6666 40.8433 50.3052C42.4537 56.2556 45.7226 61.1909 50.1922 65.3847C51.022 66.1639 51.9194 66.8727 52.7852 67.6134L53.1687 68.9226L53.5253 70.9544L53.6957 73.0754C53.6937 73.5058 53.676 73.9381 53.7016 74.3671C53.7088 74.4773 53.853 74.579 53.9343 74.6847L54.6579 74.9376L55.411 75.2291L55.2819 73.3441L55.276 71.4871L55.5362 68.6586L55.725 68.0431L56.2658 67.0904C56.933 66.5571 57.6482 66.072 58.2558 65.478C59.355 64.4041 60.4523 63.3152 61.4361 62.1383C62.7161 60.6128 63.8094 58.9414 64.6931 57.1594C65.2824 55.9642 65.8382 54.7449 66.2977 53.4962C66.7028 52.3956 66.9538 51.2383 67.2731 50.1057L67.357 49.8612C68.0157 46.8044 68.1265 43.7164 67.8846 40.6088C67.6899 38.1044 67.098 35.6873 66.2748 33.3191ZM53.231 66.1C53.3319 65.5973 53.4571 65.0972 53.5482 64.5925C53.4571 65.0972 53.3326 65.5973 53.231 66.1ZM55.4707 66.4469L55.0473 65.5243L55.4707 66.4469L56.0927 66.9757L55.4707 66.4469ZM81.7904 78.1358C81.249 77.1037 80.4545 76.3199 79.4045 75.8055C78.5248 75.3752 77.579 75.1861 76.6063 75.1587C75.8774 75.1378 75.1459 75.175 74.4157 75.1841C73.7674 75.1919 73.1185 75.203 72.4703 75.1971C71.708 75.1893 70.9457 75.1665 70.1833 75.145C70.0568 75.1411 69.967 75.1665 69.908 75.2943C69.8156 75.4932 69.7062 75.6849 69.5928 75.9026L69.7199 75.9431C70.0981 76.0096 70.4783 76.0663 70.8545 76.1413C71.3383 76.2371 71.5559 76.5136 71.5782 76.9192C71.611 77.4969 71.6241 78.0759 71.6221 78.6549C71.6123 80.9461 71.5959 83.2374 71.5788 85.5279C71.5775 85.6792 71.5749 85.837 71.5336 85.9791C71.4858 86.1434 71.434 86.356 71.3107 86.4369C71.089 86.5785 70.8402 86.6729 70.5799 86.714C70.2122 86.774 70.1506 86.7903 70.0359 87.1502L69.986 87.3301C69.931 87.5264 69.9605 87.5649 70.1663 87.5668C71.3475 87.5799 72.528 87.6053 73.7085 87.6014C74.7854 87.5975 75.8623 87.6627 76.9353 87.4612C77.9493 87.2715 78.8958 86.9389 79.7597 86.3762C80.8806 85.6453 81.6868 84.6686 82.1122 83.3938C82.4557 82.3643 82.5324 81.3139 82.4157 80.2374C82.3429 79.5038 82.1307 78.7906 81.7904 78.1358ZM79.7211 84.4351C79.0892 85.6049 78.1466 86.386 76.7996 86.592C75.9561 86.7205 75.1112 86.6833 74.3069 86.3658C73.7976 86.165 73.6082 85.7275 73.5924 85.2104C73.578 84.7037 73.5708 84.1968 73.5708 83.6899C73.5682 81.9072 73.5682 80.1245 73.5708 78.3425C73.5721 77.7811 73.5819 77.2184 73.5911 76.6564C73.5977 76.2613 73.6809 76.1289 74.0683 76.097C75.7699 75.9548 77.3935 76.1374 78.7418 77.3286C79.5756 78.0654 80.0501 79.005 80.2474 80.0841C80.3293 80.534 80.3542 80.9944 80.4054 81.4508C80.3641 82.4927 80.2225 83.5066 79.7211 84.4351ZM94.0031 82.5045C93.6675 81.692 93.0317 81.1828 92.2327 80.8568C91.96 80.7453 91.6788 80.6533 91.3845 80.5451L91.4874 80.4799C91.8053 80.2771 92.1592 80.1135 92.4332 79.8637C93.0992 79.2567 93.3758 78.4932 93.246 77.5862C93.1228 76.7236 92.6902 76.0904 91.9174 75.6796C91.216 75.308 90.4596 75.1724 89.677 75.173C88.3228 75.1743 86.9679 75.1945 85.6137 75.1971C85.147 75.1978 84.6803 75.1632 84.2136 75.1567C84.1232 75.1554 83.9888 75.1782 83.9501 75.2382C83.8433 75.4012 83.7725 75.589 83.6965 75.7703C83.6526 75.8759 83.6958 75.9339 83.8171 75.9496C84.1429 75.9939 84.468 76.0494 84.7944 76.0976C85.2454 76.1648 85.4636 76.3982 85.4912 76.85L85.4971 77.118C85.4977 78.5232 85.5023 79.9283 85.4964 81.3334C85.488 82.7366 85.4747 84.1398 85.4564 85.5429C85.4545 85.7196 85.4302 85.897 85.4046 86.0724C85.366 86.3371 85.2237 86.5197 84.951 86.577L84.1796 86.7283C84.0885 86.7466 83.9567 86.744 83.9193 86.8C83.7778 87.0107 83.6637 87.2408 83.6794 87.5186L83.7588 87.5401L86.3498 87.6033L86.8696 87.6014C87.7663 87.591 88.6643 87.6086 89.5597 87.5629C90.5291 87.5147 91.4395 87.2284 92.2812 86.7361C93.1772 86.2113 93.8667 85.5195 94.1119 84.4788C94.2692 83.8144 94.2699 83.1461 94.0031 82.5045ZM87.4202 76.5182C87.4241 76.2358 87.5493 76.1133 87.8312 76.1061C88.5253 76.0872 89.2149 76.0911 89.8848 76.3291C90.7513 76.6368 91.2842 77.3801 91.2744 78.2884C91.2698 78.6373 91.275 78.9828 91.1459 79.318C90.8909 79.9778 90.4019 80.326 89.7084 80.3938C89.3466 80.4304 88.9815 80.4343 88.659 80.4512L87.5828 80.4043C87.4399 80.3991 87.3776 80.3365 87.3783 80.1904L87.4202 76.5182ZM91.8813 85.3167C91.5346 86.0672 90.9027 86.4616 90.1116 86.5986C89.481 86.7062 88.8346 86.6779 88.2159 86.5158C87.7532 86.3977 87.5644 86.028 87.472 85.6179C87.4097 85.3434 87.4202 85.0167 87.415 84.7311C87.4064 84.2904 87.413 83.3756 87.413 83.3756H87.4038C87.4038 82.7235 87.4058 82.1589 87.4019 81.5336C87.4012 81.3986 87.4241 81.3315 87.59 81.3367C88.1786 81.3543 88.7692 81.3641 89.3578 81.3869C89.8841 81.4071 90.377 81.5623 90.8404 81.8107C91.5457 82.1889 91.9705 82.7679 92.0871 83.5634C92.1763 84.1665 92.1383 84.7598 91.8813 85.3167ZM27.2606 86.0196L27.2731 82.4745C27.275 81.9411 27.2069 81.4182 27.0312 80.9122C26.5468 79.5188 25.211 78.8844 23.8201 79.3845C23.1875 79.6121 22.6206 79.957 22.0791 80.3482C21.7639 80.5764 21.7639 80.5764 21.5358 80.251C20.8901 79.3304 19.9679 79.0154 18.8942 79.3551C18.2001 79.5742 17.5931 79.9492 17.0183 80.3847C16.9645 80.4251 16.8564 80.4701 16.8243 80.446C16.7705 80.4062 16.7331 80.3117 16.7345 80.2406L16.7738 79.6107C16.7771 79.4784 16.7515 79.3454 16.7384 79.2065C16.4788 79.2958 16.2717 79.3851 16.0547 79.4373C15.3842 79.6003 14.7091 79.7503 14.0346 79.9035C13.8714 79.9407 13.699 79.9896 13.6832 80.1761C13.6669 80.3593 13.8445 80.3899 13.9821 80.4447C14.2719 80.5608 14.5596 80.684 14.846 80.8092C15.0866 80.9148 15.1764 81.1059 15.1751 81.3628C15.1705 82.4614 15.1777 83.5588 15.1712 84.6575C15.1685 85.1041 15.1476 85.5501 15.1272 85.9967C15.1089 86.3925 14.9732 86.5581 14.5878 86.6579C14.3833 86.7114 14.1755 86.7472 13.9697 86.7955C13.9245 86.8059 13.8471 86.8346 13.8465 86.8568C13.8379 87.0504 13.8274 87.2486 13.8602 87.4371C13.8668 87.471 14.0726 87.471 14.1866 87.484L14.2633 87.4795C15.0578 87.4677 15.8522 87.4553 16.6473 87.4469C17.0687 87.4423 17.4896 87.4462 17.9471 87.4462L17.9962 86.8137C17.734 86.7661 17.5 86.7303 17.2693 86.6801C16.9095 86.6018 16.7561 86.4121 16.7469 86.0509L16.7404 85.5338C16.7364 84.1926 16.7312 82.852 16.7312 81.5108C16.7312 81.3158 16.8125 81.1613 16.9848 81.0446C17.3499 80.7994 17.7354 80.6044 18.1621 80.4956C19.0614 80.2667 19.8414 80.5849 20.1875 81.3458C20.2969 81.5858 20.3828 81.8511 20.407 82.1119C20.5342 83.4564 20.4791 84.8022 20.4025 86.1467C20.3861 86.4369 20.2491 86.5829 19.9613 86.654L19.2849 86.7961C19.2305 86.8098 19.1512 86.7733 19.1472 86.8183C19.1322 87.0041 19.1407 87.2891 19.1407 87.2891H19.3019L21.3614 87.3562C21.9258 87.3549 22.4908 87.4227 23.0545 87.4371C23.1554 87.439 23.2452 87.454 23.2511 87.338C23.2576 87.1578 23.2552 86.9774 23.2439 86.7974L23.1364 86.7785L22.5563 86.6488C22.165 86.5568 22.03 86.4088 22.0287 86.015C22.0241 85.0441 22.0372 84.0739 22.0287 83.1037C22.0237 82.5488 22.0029 81.9941 21.9664 81.4403C21.9566 81.293 21.9795 81.1965 22.0975 81.1137C22.4395 80.865 22.8242 80.6805 23.2328 80.5692C24.5011 80.2367 25.5394 80.9285 25.6049 82.2293C25.6691 83.4838 25.6423 84.7429 25.6324 86C25.6292 86.4375 25.4837 86.5699 25.0504 86.6872L24.9009 86.7257C24.4572 86.8313 24.4611 86.8313 24.4873 87.3001C24.4959 87.4469 24.5365 87.4847 24.6938 87.4808C25.5977 87.4605 26.5016 87.4553 27.4055 87.4475C27.7752 87.4443 28.1449 87.4475 28.5473 87.4475L28.6292 86.8372C28.2759 86.744 27.9502 86.6749 27.6356 86.5725C27.3576 86.4786 27.2593 86.3117 27.2606 86.0196ZM58.3882 80.6462C58.7605 80.3026 58.7631 79.8487 58.6589 79.3447C58.3639 79.6518 58.0336 79.7933 57.6567 79.82C57.1513 79.8559 56.6551 79.8122 56.1845 79.6121C54.9116 79.0683 53.6583 79.1067 52.409 79.7033C51.3583 80.2041 50.712 80.9846 50.6471 82.168C50.6058 82.9263 50.7487 83.6442 51.2573 84.2473C51.5621 84.6086 51.9534 84.8426 52.3946 85.0043C52.5847 85.0741 52.5991 85.1641 52.4398 85.2847C52.3222 85.3731 52.2003 85.4558 52.0747 85.5325C51.8085 85.699 51.5406 85.8629 51.2711 86.0241C51.1131 86.1193 51.0594 86.2406 51.1112 86.4264C51.2626 86.9728 51.6526 87.2884 52.1403 87.5186L52.3179 87.6418L52.1625 87.7963C51.6847 88.1817 51.1879 88.5455 50.7303 88.9544C50.3462 89.298 50.2224 89.7583 50.3384 90.2662C50.5724 91.2802 51.2482 91.9074 52.2071 92.1956C53.8831 92.7003 55.4569 92.4108 56.8917 91.423C57.7425 90.8368 58.3528 90.0739 58.5383 89.0241C58.7461 87.8446 58.0873 86.8209 56.9081 86.6096C56.1281 86.4688 55.3298 86.4284 54.5406 86.3384C54.1722 86.2967 53.7986 86.2719 53.44 86.1878C53.1353 86.1161 52.9838 85.8689 53.012 85.6277C53.0402 85.3904 53.2939 85.1693 53.5843 85.1465C54.1689 85.0995 54.7418 85.0089 55.2806 84.7637C56.7082 84.1143 57.3709 82.9772 57.2051 81.4462C57.1834 81.2402 57.1362 81.0367 57.0936 80.7968C57.5505 80.8731 58.0178 80.9885 58.3882 80.6462ZM54.0562 87.8296C54.6369 87.8466 55.2976 87.8824 55.9361 88.0682C56.4978 88.2313 56.9599 88.5168 57.0963 89.1408C57.2608 89.8946 56.8963 90.6444 56.1629 91.0474C55.4759 91.4242 54.73 91.4556 53.9736 91.378C53.326 91.3114 52.7433 91.0885 52.2766 90.6125C51.6618 89.9859 51.6585 89.1187 52.274 88.494C52.8239 87.9359 53.1182 87.8205 54.0562 87.8296ZM55.5094 83.2902C55.1711 84.3667 54.1866 84.5153 53.4151 84.1711C52.7577 83.8783 52.4713 83.3019 52.3212 82.644C52.2628 82.391 52.2491 82.1282 52.215 81.8694C52.2287 81.4984 52.2904 81.1424 52.4509 80.8085C52.9432 79.7803 54.1525 79.8416 54.8218 80.3071C55.1089 80.5066 55.3088 80.7779 55.434 81.0993C55.7127 81.799 55.7393 82.5731 55.5094 83.2902ZM49.3676 86.7218C49.1334 86.6862 48.902 86.6348 48.6748 86.5679C48.2763 86.4466 48.2278 86.3723 48.2232 85.9531C48.2114 84.7846 48.2035 83.6162 48.1904 82.4484C48.1838 81.9229 48.1209 81.4045 47.959 80.9024C47.533 79.5788 46.2279 78.8681 44.9222 79.2587C44.1986 79.4758 43.5772 79.8794 42.9984 80.3534L42.7874 80.5145L42.788 80.2986C42.8018 80.0502 42.8287 79.8018 42.8267 79.5534C42.8254 79.4236 42.7756 79.2932 42.7513 79.1791C42.2578 79.3271 41.8153 79.4758 41.3637 79.5892C40.9108 79.7027 40.4487 79.7796 39.9905 79.8722C39.763 79.9179 39.5959 80.0548 39.5998 80.2106C39.6057 80.4304 39.7886 80.4727 39.9485 80.5386C40.2383 80.6566 40.5273 80.7759 40.8138 80.9024C41.0183 80.9931 41.1015 81.1613 41.0995 81.3797C41.0851 82.8983 41.0759 84.4175 41.0537 85.9368C41.0471 86.4166 40.9252 86.5431 40.4506 86.6488L40.2435 86.6898C39.8043 86.7648 39.7919 86.7824 39.822 87.2434L39.8247 87.3197C39.8194 87.4971 39.8974 87.5544 40.0809 87.5525C41.2477 87.5388 42.4151 87.5323 43.5818 87.5368C44.0819 87.5388 44.1357 87.4997 44.1252 86.9885L44.1016 86.7687C43.8158 86.7212 43.5425 86.6866 43.275 86.6279C42.9952 86.566 42.8949 86.4519 42.8687 86.1689C42.8444 85.91 42.8365 85.6473 42.8339 85.3864C42.8208 84.1926 42.8103 82.9987 42.8044 81.8055C42.8031 81.5049 42.8588 81.2258 43.1367 81.0322C43.5458 80.7414 44.028 80.5694 44.5296 80.5353C45.5705 80.4643 46.3616 81.0778 46.418 82.11C46.4875 83.3834 46.4665 84.6614 46.4829 85.9374C46.4842 86.0326 46.4672 86.1284 46.4541 86.223C46.4292 86.4095 46.3374 86.5497 46.1473 86.5979C45.9618 86.6462 45.7737 86.6892 45.5843 86.7179C45.3017 86.7596 45.2959 86.7577 45.2742 87.0413L45.2814 87.2323C45.3149 87.5623 45.3155 87.5525 45.6511 87.5492C46.7798 87.5401 47.9079 87.5342 49.036 87.5355C49.5079 87.5368 49.5413 87.5147 49.5453 87.0309L49.5439 86.9161C49.5512 86.7922 49.4954 86.742 49.3676 86.7218ZM65.133 79.3389C63.9498 79.0513 62.8277 79.2652 61.7619 79.8135C60.7262 80.3462 60.0341 81.1698 59.7706 82.3069C59.5044 83.4564 59.6316 84.5779 60.1422 85.6453C60.4745 86.3384 60.9858 86.8744 61.6819 87.2226C63.3114 88.0389 65.3047 87.6685 66.5829 86.5764C67.5916 85.7151 67.962 84.5681 67.9842 83.1487C67.9705 83.0065 67.9567 82.7327 67.9187 82.4614C67.7044 80.9161 66.6287 79.7027 65.133 79.3389ZM66.029 85.3082C65.715 86.5379 64.6459 87.0843 63.4399 86.6618C62.8244 86.4466 62.3643 86.0352 62.0549 85.479C61.343 84.201 61.206 82.8422 61.6111 81.4482C61.8812 80.5197 62.6494 80.0117 63.5631 80.0756C64.3798 80.1324 65.0078 80.5223 65.4686 81.1834C65.9543 81.8811 66.1417 82.6746 66.1915 83.5079C66.2001 83.6416 66.1928 83.7753 66.1928 83.9096L66.2505 83.9161C66.1784 84.381 66.1443 84.855 66.029 85.3082ZM35.3766 79.3186C34.1319 79.0357 32.9658 79.3154 31.8856 79.9446C30.9516 80.4884 30.3479 81.3008 30.1165 82.3623C29.8995 83.3541 29.988 84.3288 30.3413 85.2789C30.5563 85.8579 30.8821 86.3671 31.3599 86.7642C32.3661 87.5994 33.542 87.8107 34.7933 87.5779C35.8525 87.3803 36.7833 86.9122 37.4597 86.0365C38.0929 85.2176 38.3341 84.2773 38.359 83.2582C38.3217 82.9355 38.3125 82.6068 38.2437 82.2919C37.9015 80.7198 36.9773 79.6818 35.3766 79.3186ZM36.392 85.3043C36.0885 86.5275 35.0024 87.0876 33.8048 86.6651C33.036 86.3932 32.5352 85.8331 32.2186 85.1152C31.7113 83.9618 31.6077 82.7614 31.9361 81.5447C32.1878 80.6142 32.9462 79.9289 34.107 80.0933C34.8195 80.1937 35.3753 80.5555 35.7896 81.1313C36.3494 81.9079 36.5335 82.7972 36.5591 83.7316V83.9226L36.6063 83.9298C36.5375 84.3888 36.5034 84.8557 36.392 85.3043Z" fill="#176B87"/>
</svg>
