<svg width="84" height="84" viewBox="0 0 84 84" fill="none" xmlns="http://www.w3.org/2000/svg">
<path d="M1.31157 58.9815H4.00423V48.4036L8.17302 57.6253C8.66462 58.7415 9.33778 59.136 10.6586 59.136C11.9793 59.136 12.6269 58.7415 13.1185 57.6253L17.2873 48.4036V58.9815H19.98V48.4212C19.98 47.391 19.5657 46.8922 18.711 46.6353C16.6653 46.0002 15.2927 46.5499 14.6713 47.9237L10.5806 57.0247L6.61955 47.923C6.02373 46.5499 4.62562 46.0002 2.5799 46.6346C1.72517 46.8922 1.31091 47.3903 1.31091 48.4205V58.9815H1.31157ZM22.2197 50.3708H24.9117V56.1986C24.8868 56.5149 25.014 57.2582 26.4888 57.2816C27.2413 57.2934 32.2975 57.2816 32.3447 57.2816V50.3421H35.0433C35.0558 50.3421 35.0407 59.8057 35.0407 59.8448C35.0551 62.179 32.1297 62.6857 30.7808 62.7248H22.278V60.9226C22.2925 60.9226 30.7749 60.9245 30.7959 60.9219C32.5296 60.74 32.3244 59.8832 32.3238 59.5951V58.8922H26.6009C23.9384 58.868 22.242 57.712 22.2204 56.3818C22.2191 56.2599 22.2787 50.4294 22.2197 50.3708ZM37.1192 58.9815H44.8616C45.7681 58.9815 46.649 58.793 47.3478 58.467C48.5125 57.935 49.0821 57.2138 49.0821 56.2684V54.311C49.0821 53.5383 48.4352 52.8165 47.1662 52.3366C46.493 52.0784 45.6639 51.9422 44.8609 51.9422H41.598C40.5106 51.9422 39.9927 51.6161 39.8636 50.895C39.8381 50.8089 39.8381 50.7405 39.8381 50.6544V49.4351C39.8381 49.3666 39.8381 49.2975 39.8636 49.2121C39.9927 48.6624 40.2779 48.5079 41.2362 48.4218L41.4951 48.4049H49.1857V46.6196H41.6249C40.5374 46.6196 39.9678 46.6881 39.45 46.8426C37.8448 47.3408 37.1447 48.1304 37.1447 49.5042V51.0665C37.1447 52.2688 38.5179 53.299 40.8219 53.5396C41.0815 53.5559 41.3397 53.5742 41.5986 53.5742H44.3955C44.4991 53.5742 44.6027 53.5742 44.6807 53.5905C45.5354 53.659 45.8972 53.8141 46.1568 54.1225C46.2233 54.1837 46.2761 54.2581 46.3117 54.3409C46.3472 54.4237 46.3648 54.513 46.3632 54.6031V56.166C46.3632 56.3545 46.2341 56.5951 45.9752 56.8011C45.7425 57.0071 45.3538 57.1447 44.836 57.1793L44.5509 57.1962H37.1192V58.9815ZM65.8818 55.8739C65.8818 57.7107 67.2543 58.7409 70.0244 58.9476C70.2833 58.9645 70.5422 58.9815 70.8011 58.9815H77.8185V57.1962H70.75C69.1703 57.1962 68.5751 56.8011 68.5751 55.8563V46.6183H65.8825V55.8739H65.8818ZM50.8008 55.9665V49.5994C50.8008 47.9824 51.9426 47.0011 54.2 46.6914C54.4406 46.657 54.6833 46.6398 54.9263 46.6398H60.0383C60.2979 46.6398 60.5312 46.6568 60.7901 46.6914C63.0475 47.0011 64.19 47.9817 64.19 49.5994V55.9665C64.19 57.2797 63.705 57.9813 62.5874 58.439L65.2407 60.8209H62.1135L59.9675 58.8935L57.8071 59.0297H54.9263C54.3911 59.0263 53.8589 58.9511 53.344 58.8061C51.6313 58.3418 50.8008 57.4466 50.8008 55.9665ZM53.7078 55.812C53.7078 55.898 53.7333 55.9847 53.7596 56.0878C53.9149 56.8278 54.6163 57.2406 55.6794 57.2406H58.1256L55.8787 55.2225H59.0059L60.9651 56.983C61.3269 56.7907 61.5642 56.4986 61.6475 56.1223C61.673 56.0363 61.673 55.9502 61.673 55.8641V49.7559C61.673 49.6874 61.673 49.6007 61.6475 49.5146C61.4915 48.8261 60.7908 48.431 59.7532 48.431H55.6788C54.4858 48.431 53.7071 48.9474 53.7071 49.7559V55.812H53.7078ZM80.1874 43.6548C78.5323 43.6099 77.2679 43.7631 76.1864 44.2162C75.879 44.3453 75.3894 44.3486 75.3396 44.7313C75.508 44.908 75.5342 45.1708 75.6686 45.3873C75.9269 45.8026 76.3627 46.3595 76.7514 46.6509C77.1755 46.9698 77.6134 47.3114 78.0696 47.5879C78.8791 48.0795 79.7836 48.3599 80.5643 48.8515C81.0238 49.1423 81.48 49.5075 81.929 49.8354C82.1512 49.9965 82.2993 50.2488 82.5884 50.3499V50.3036C82.437 50.1119 82.3976 49.8485 82.2587 49.6477L81.6465 49.0387C81.048 48.2484 80.289 47.5553 79.4808 46.9789C78.8371 46.5192 77.3964 45.8978 77.1277 45.1526L77.0805 45.1063C77.5367 45.0548 78.0715 44.8904 78.4924 44.7783C79.2003 44.5892 79.8328 44.6381 80.5636 44.4503L81.5521 44.1686V43.9822C81.1831 43.6053 80.9189 43.1058 80.5164 42.7648C79.4631 41.8722 78.3121 40.9802 77.1277 40.2356C76.4709 39.8235 75.6588 39.5555 74.962 39.206C74.7287 39.088 74.317 39.0274 74.1617 38.8311C73.7953 38.3675 73.5967 37.78 73.3142 37.2395C72.7108 36.0718 72.1457 34.8849 71.6198 33.6807C71.2632 32.8689 71.0298 32.0682 70.5848 31.3399C68.4473 27.8444 66.1466 25.7344 62.5828 23.661C61.8244 23.2195 60.9114 23.0461 59.9472 22.8185L58.3937 22.7246C58.0784 22.5936 57.7494 22.2089 57.4525 22.0224C56.2713 21.2804 53.243 19.6666 52.3686 21.789C51.8167 23.1282 53.1945 24.4349 53.6868 25.1137C54.0322 25.5897 54.4753 26.123 54.7224 26.6583C54.885 27.0104 54.9125 27.3632 55.0521 27.7355C55.3936 28.6523 55.6919 29.6505 56.1343 30.4975C56.3578 30.9265 56.6049 31.3784 56.8875 31.7618C57.0605 31.9965 57.3581 32.1008 57.4046 32.464C57.1142 32.8683 57.0972 33.4968 56.934 34.0087C56.1986 36.3162 56.4758 39.1845 57.5462 40.8922C57.8746 41.4171 58.648 42.5412 59.7112 42.1095C60.6413 41.7327 60.4342 40.5649 60.7003 39.534C60.7606 39.3012 60.7233 39.1291 60.8412 38.9726V39.0196L61.6888 40.7051C62.316 41.7098 63.4284 42.759 64.3716 43.4677C64.8606 43.8348 65.246 44.4705 65.8779 44.685V44.6375H65.8313C65.7081 44.4477 65.5174 44.3695 65.36 44.2162C64.9917 43.857 64.582 43.411 64.2779 42.9989C63.4199 41.8409 62.6621 40.5727 61.9713 39.253C61.6416 38.6231 61.3551 37.9281 61.0772 37.2865C60.9697 37.0393 60.971 36.6651 60.7482 36.5379C60.4427 37.0074 59.995 37.3875 59.7591 37.9424C59.3828 38.8292 59.3343 39.9109 59.1947 41.0324L59.1003 41.0787C58.4442 40.9215 58.2141 40.2499 57.9703 39.6742C57.3541 38.2182 57.2394 35.8728 57.7822 34.1965C57.9224 33.7622 58.5563 32.3962 58.2993 31.9952C58.1768 31.5955 57.7723 31.3647 57.5469 31.0582C57.251 30.6482 56.9986 30.2088 56.7937 29.747C56.289 28.6118 56.0537 27.3371 55.5234 26.1889C55.2691 25.6399 54.8404 25.085 54.4878 24.5973C54.0978 24.0561 53.6606 23.6583 53.3578 23.005C53.2503 22.7729 53.1041 22.4006 53.2634 22.1619C53.3138 22.0009 53.3866 21.9337 53.5465 21.8809C53.8192 21.6716 54.5796 21.9507 54.864 22.068C55.6191 22.3804 56.249 22.677 56.8888 23.0983C57.1955 23.301 57.5056 23.6923 57.8772 23.8005H58.3006C58.9633 23.9518 59.706 23.8468 60.3247 24.0339C61.4194 24.3651 62.3999 24.8796 63.2901 25.439C66.0031 27.1435 68.2205 29.569 69.7386 32.4627C69.9824 32.9289 70.0886 33.373 70.3029 33.8672C70.7369 34.8635 71.2835 35.8891 71.7148 36.8639C72.1455 37.8361 72.5656 38.8174 73.1745 39.6266C73.4944 40.0517 74.7306 40.2799 75.2924 40.516C75.6863 40.6816 76.3313 40.8544 76.7042 41.0774C77.4167 41.5051 78.1076 42.0143 78.7755 42.4825C79.1092 42.7185 80.1363 43.2317 80.1874 43.6548ZM59.1475 25.8159C58.8621 25.8113 58.5773 25.8428 58.3 25.9098V25.9561H58.3472C58.5117 26.2932 58.8021 26.5097 59.0059 26.7992L59.4772 27.7824L59.5237 27.7361C59.8154 27.5321 59.9485 27.2054 59.9472 26.7059C59.8299 26.5834 59.8128 26.4301 59.7119 26.2847C59.5782 26.0891 59.3173 25.9796 59.1475 25.8159Z" fill="#176B87"/>
</svg>
