<svg width="84" height="84" viewBox="0 0 84 84" fill="none" xmlns="http://www.w3.org/2000/svg">
<path d="M74.9364 52.6508C74.7464 52.6508 74.5576 52.6012 74.3911 52.5047L72.6541 51.4824C72.3945 51.3383 72.521 51.2868 72.6069 51.2574C72.953 51.1374 73.0231 51.1094 73.3922 50.9021C73.4308 50.8805 73.4813 50.8884 73.5213 50.9118L74.8552 51.7001C74.88 51.7133 74.9077 51.7202 74.9358 51.7202C74.9639 51.7202 74.9916 51.7133 75.0164 51.7001L80.2189 48.7132C80.2434 48.6988 80.2636 48.6783 80.2777 48.6537C80.2917 48.6291 80.299 48.6013 80.2988 48.573V42.6004C80.2989 42.5717 80.2915 42.5435 80.2773 42.5185C80.2632 42.4935 80.2429 42.4725 80.2182 42.4576L75.0177 39.4733C74.9931 39.4598 74.9655 39.4527 74.9374 39.4527C74.9094 39.4527 74.8817 39.4598 74.8571 39.4733L69.6573 42.4582C69.6326 42.4731 69.6122 42.4939 69.5978 42.5188C69.5835 42.5436 69.5758 42.5717 69.5754 42.6004V48.573C69.5754 48.6304 69.6075 48.6845 69.6573 48.7112L71.0823 49.5308C71.8557 49.9149 72.3296 49.4624 72.3296 49.0073V43.1096C72.3296 43.0268 72.3972 42.961 72.4804 42.961H73.1405C73.2224 42.961 73.2906 43.0268 73.2906 43.1096V49.0073C73.2906 50.0335 72.7288 50.6223 71.7502 50.6223C71.4493 50.6223 71.2127 50.6223 70.552 50.2989L69.188 49.5178C69.022 49.4216 68.8844 49.2838 68.7887 49.1181C68.693 48.9524 68.6426 48.7647 68.6426 48.5737V42.601C68.6426 42.2131 68.8504 41.8512 69.188 41.6582L74.3904 38.6673C74.5581 38.5765 74.7459 38.529 74.9368 38.529C75.1276 38.529 75.3155 38.5765 75.4831 38.6673L80.6856 41.6582C81.0225 41.8519 81.2316 42.2137 81.2316 42.601V48.5737C81.2312 48.7647 81.1807 48.9524 81.0849 49.118C80.9891 49.2836 80.8514 49.4215 80.6856 49.5178L75.4831 52.5054C75.3171 52.6012 75.1284 52.6514 74.9364 52.6508ZM76.5443 48.5358C74.2666 48.5358 73.79 47.4958 73.79 46.6241C73.7902 46.5844 73.8062 46.5464 73.8344 46.5185C73.8627 46.4905 73.9009 46.4748 73.9408 46.4748H74.6133C74.6493 46.4746 74.6841 46.4873 74.7115 46.5105C74.7389 46.5337 74.7571 46.5659 74.7627 46.6013C74.8637 47.2826 75.1672 47.6262 76.5443 47.6262C77.6396 47.6262 78.1063 47.3798 78.1063 46.8008C78.1063 46.4669 77.9739 46.2198 76.271 46.0535C74.8473 45.9134 73.967 45.601 73.967 44.4672C73.967 43.4233 74.8519 42.7999 76.3346 42.7999C78.0014 42.7999 78.826 43.3757 78.9302 44.6106C78.9319 44.6314 78.9292 44.6523 78.9224 44.672C78.9157 44.6917 78.9049 44.7099 78.8909 44.7254C78.8766 44.7402 78.8596 44.752 78.8407 44.7602C78.8218 44.7684 78.8014 44.7727 78.7808 44.773H78.105C78.0709 44.773 78.0378 44.7615 78.0112 44.7402C77.9846 44.719 77.9661 44.6894 77.9588 44.6562C77.7963 43.939 77.403 43.7102 76.3339 43.7102C75.1377 43.7102 74.9987 44.1255 74.9987 44.4352C74.9987 44.8114 75.1626 44.921 76.7783 45.1335C78.377 45.3441 79.1367 45.6415 79.1367 46.7597C79.1373 47.8897 78.1922 48.5358 76.5443 48.5358M64.2241 44.6184C64.4293 44.4991 64.5558 44.2813 64.5558 44.0446V42.5098C64.5558 42.2737 64.4299 42.0559 64.2241 41.9366L58.7418 38.7704C58.6404 38.7117 58.5253 38.6807 58.408 38.6805C58.2907 38.6803 58.1755 38.7108 58.0739 38.7691L52.5574 41.9373C52.4563 41.9955 52.3723 42.0792 52.3138 42.1799C52.2554 42.2806 52.2246 42.3948 52.2245 42.5111V48.8462C52.2245 49.0842 52.3529 49.3046 52.5614 49.4226L58.0431 52.5295C58.2449 52.6449 58.4927 52.6456 58.6966 52.5334L62.0119 50.6999C62.0635 50.6714 62.1066 50.6298 62.1367 50.5793C62.1668 50.5288 62.1829 50.4713 62.1833 50.4125C62.1837 50.3538 62.1684 50.2961 62.139 50.2452C62.1096 50.1943 62.0671 50.1521 62.0158 50.1229L56.4653 46.954C56.4144 46.9251 56.3721 46.8834 56.3426 46.833C56.3131 46.7826 56.2976 46.7254 56.2975 46.6671V44.681C56.2975 44.5624 56.3611 44.4535 56.464 44.3948L58.1925 43.4037C58.243 43.3746 58.3003 43.3592 58.3587 43.3592C58.417 43.3592 58.4743 43.3746 58.5248 43.4037L60.2533 44.3948C60.304 44.4237 60.3461 44.4653 60.3755 44.5156C60.4048 44.5658 60.4203 44.6229 60.4204 44.681V46.2433C60.4201 46.3017 60.4353 46.3592 60.4646 46.4098C60.4938 46.4605 60.536 46.5025 60.5869 46.5317C60.6378 46.5609 60.6955 46.5761 60.7543 46.5758C60.813 46.5755 60.8706 46.5598 60.9212 46.5302L64.2241 44.6184M58.3262 44.3211C58.3457 44.3103 58.3677 44.3046 58.3901 44.3046C58.4125 44.3046 58.4345 44.3103 58.454 44.3211L59.5126 44.9294C59.5519 44.9523 59.5762 44.9946 59.5762 45.0396V46.2557C59.5762 46.3013 59.5519 46.3431 59.5126 46.3659L58.454 46.9736C58.4346 46.9848 58.4126 46.9907 58.3901 46.9907C58.3677 46.9907 58.3456 46.9848 58.3262 46.9736L57.2683 46.3659C57.2487 46.3548 57.2325 46.3388 57.2212 46.3194C57.2099 46.3 57.204 46.2781 57.2041 46.2557V45.0396C57.2041 44.9946 57.2283 44.9523 57.2683 44.9294L58.3262 44.3211ZM43.9708 46.851C43.9708 46.9097 43.9393 46.9644 43.8875 46.9944L41.9932 48.0807C41.968 48.0954 41.9393 48.1032 41.91 48.1032C41.8807 48.1032 41.852 48.0954 41.8268 48.0807L39.9324 46.9944C39.9072 46.9798 39.8862 46.9589 39.8716 46.9338C39.857 46.9086 39.8493 46.88 39.8492 46.851V44.6745C39.8492 44.6158 39.8813 44.5604 39.9324 44.5304L41.8268 43.4428C41.852 43.4278 41.8809 43.4198 41.9103 43.4198C41.9398 43.4198 41.9686 43.4278 41.9939 43.4428L43.8889 44.5304C43.914 44.5453 43.9348 44.5664 43.9492 44.5916C43.9637 44.6169 43.9714 44.6454 43.9714 44.6745V46.851H43.9708ZM44.4827 30.7354C44.4319 30.7078 44.3748 30.6937 44.3169 30.6946C44.259 30.6955 44.2024 30.7113 44.1525 30.7405C44.1026 30.7696 44.0611 30.8111 44.0321 30.861C44.0032 30.9108 43.9877 30.9673 43.9872 31.0249V39.4459C43.987 39.4865 43.9762 39.5263 43.9559 39.5616C43.9355 39.5968 43.9063 39.6261 43.8712 39.6467C43.8356 39.6669 43.7954 39.6775 43.7545 39.6775C43.7136 39.6775 43.6733 39.6669 43.6378 39.6467L42.2561 38.8545C42.1549 38.7965 42.0402 38.766 41.9234 38.766C41.8067 38.766 41.692 38.7965 41.5908 38.8545L36.073 42.022C35.9717 42.0803 35.8875 42.164 35.8289 42.2648C35.7704 42.3657 35.7395 42.48 35.7394 42.5965V48.9336C35.7394 49.1703 35.8666 49.3887 36.0724 49.508L41.5901 52.6775C41.7959 52.7962 42.0503 52.7962 42.2567 52.6775L47.7758 49.508C47.877 49.4496 47.9609 49.3658 48.0194 49.265C48.0778 49.1642 48.1086 49.0499 48.1088 48.9336V33.1368C48.1088 32.8969 47.9777 32.6752 47.7673 32.5578L44.4827 30.7354M25.0638 38.7352C25.165 38.6769 25.2798 38.6462 25.3968 38.6462C25.5137 38.6462 25.6286 38.6769 25.7298 38.7352L31.2475 41.9021C31.4533 42.0207 31.5805 42.2398 31.5805 42.4765V48.8156C31.5805 49.0522 31.4533 49.2713 31.2475 49.39L25.7304 52.5595C25.629 52.6175 25.5141 52.6481 25.3971 52.6481C25.2801 52.6481 25.1652 52.6175 25.0638 52.5595L19.548 49.39C19.4469 49.3316 19.3629 49.2478 19.3044 49.147C19.246 49.0462 19.2152 48.9319 19.215 48.8156V42.4759C19.215 42.2398 19.3422 42.0207 19.548 41.9021L25.0638 38.7352M15.0299 42.4237C15.0299 42.185 14.904 41.966 14.6969 41.8479L9.18113 38.6902C9.0885 38.6367 8.98401 38.6069 8.87699 38.6034H8.81997C8.71296 38.607 8.6085 38.6368 8.51583 38.6902L2.99941 41.8479C2.89792 41.9064 2.81368 41.9903 2.75512 42.0914C2.69656 42.1924 2.66574 42.3071 2.66577 42.4237L2.67757 50.9262C2.67757 51.0448 2.73984 51.155 2.84406 51.2124C2.89396 51.2425 2.9512 51.2584 3.00956 51.2584C3.06792 51.2584 3.12517 51.2425 3.17507 51.2124L6.45241 49.345C6.65954 49.2224 6.78605 49.0066 6.78605 48.7699V44.7977C6.78605 44.5604 6.9119 44.342 7.11837 44.2233L8.51452 43.4239C8.61543 43.3649 8.73045 43.3341 8.8475 43.3346C8.96155 43.3346 9.07822 43.3633 9.17982 43.4239L10.5747 44.2233C10.7811 44.342 10.9083 44.5604 10.9083 44.7977V48.7699C10.9083 49.0066 11.0361 49.2237 11.2419 49.345L14.5193 51.2124C14.5698 51.2411 14.627 51.2562 14.6852 51.256C14.7434 51.2559 14.8006 51.2406 14.851 51.2116C14.9014 51.1827 14.9433 51.1411 14.9725 51.091C15.0017 51.0409 15.0172 50.9841 15.0174 50.9262L15.0299 42.4237" fill="#176B87"/>
</svg>
