<svg width="84" height="84" viewBox="0 0 84 84" fill="none" xmlns="http://www.w3.org/2000/svg">
<path d="M41.95 21.5425C19.8345 21.5425 1.90479 30.5809 1.90479 41.73C1.90479 52.8791 19.8345 61.9176 41.95 61.9176C64.0655 61.9176 81.9952 52.8791 81.9952 41.73C81.9952 30.5809 64.0655 21.5425 41.95 21.5425ZM31.53 45.6631C30.5743 46.5524 29.5131 46.9195 28.3444 47.2977C27.1757 47.6765 25.6885 47.5983 23.88 47.5983H19.7814L18.6455 54.1186H13.8599L18.1303 31.9496H27.333C30.1017 31.9496 32.1212 32.7418 33.3909 34.1873C34.6605 35.6329 35.042 37.6848 34.536 40.2753C34.3269 41.3427 33.9749 42.3351 33.4781 43.2193C32.9632 44.1315 32.3056 44.9565 31.53 45.6631ZM45.4987 47.5983L47.3871 38.196C47.6021 37.0954 47.5234 36.2777 47.1505 35.878C46.7769 35.4777 45.9824 35.2097 44.7679 35.2097H40.9727L38.5271 47.5983H33.7789L38.0493 26.0813H42.7975L41.6622 31.9496H45.892C48.5538 31.9496 50.3892 32.481 51.3992 33.4042C52.4093 34.3275 52.7121 35.5924 52.3084 37.6607L50.3216 47.5983H45.4987ZM71.8872 40.3099C71.6788 41.3773 71.3261 42.3527 70.8299 43.2362C70.3331 44.121 69.6842 44.9302 68.8825 45.6631C67.9269 46.5524 66.865 46.9195 65.697 47.2977C64.5289 47.6765 63.0404 47.5983 61.2319 47.5983H57.1333L55.998 54.1186H51.2124L55.4821 31.9496H64.6856C67.4543 31.9496 69.4738 32.7418 70.7428 34.1873C72.0111 35.6329 72.3932 37.72 71.8872 40.3099ZM62.8719 35.2097H59.5939L57.8064 44.3381H60.718C62.6464 44.3381 64.0845 44.1491 65.0284 43.4253C65.9736 42.7028 66.61 41.5814 66.9411 39.8906C67.2583 38.2664 67.1141 36.9995 66.5084 36.3319C65.9021 35.6642 64.6902 35.2097 62.8719 35.2097ZM25.52 35.2097H22.2414L20.4539 44.3381H23.3648C25.2939 44.3381 26.7313 44.1491 27.6759 43.4253C28.6204 42.7028 29.2575 41.5814 29.5879 39.8906C29.9051 38.2664 29.7609 36.9995 29.1552 36.3319C28.5496 35.6642 27.3383 35.2097 25.52 35.2097Z" fill="#176B87"/>
</svg>
