<svg width="84" height="84" viewBox="0 0 84 84" fill="none" xmlns="http://www.w3.org/2000/svg">
<path d="M41.9499 49.1632C46.0767 49.1632 49.4222 45.8353 49.4222 41.73C49.4222 37.6248 46.0767 34.2969 41.9499 34.2969C37.823 34.2969 34.4775 37.6248 34.4775 41.73C34.4775 45.8353 37.823 49.1632 41.9499 49.1632Z" fill="#176B87"/>
<path d="M70.3317 29.4719C68.8897 28.9502 67.3821 28.4286 65.809 27.9722C66.2023 26.4073 66.53 24.8424 66.7922 23.3428C68.1687 14.7359 66.6611 8.67206 62.4661 6.32474C61.2207 5.60751 59.8442 5.28149 58.2711 5.28149C53.6828 5.28149 47.8492 8.67206 41.9499 14.3447C36.0507 8.67206 30.2171 5.28149 25.6288 5.28149C24.0556 5.28149 22.6792 5.60751 21.4338 6.32474C17.2388 8.73726 15.7312 14.8011 17.1077 23.3428C17.3699 24.8424 17.6976 26.4073 18.0909 27.9722C16.5178 28.4286 15.0102 28.885 13.5682 29.4719C5.37479 32.6016 0.917603 36.905 0.917603 41.73C0.917603 46.5551 5.44034 50.8585 13.5682 53.9882C15.0102 54.5099 16.5178 55.0315 18.0909 55.4879C17.6976 57.0528 17.3699 58.6176 17.1077 60.1173C15.7312 68.7241 17.2388 74.788 21.4338 77.1353C22.6792 77.8526 24.0556 78.1786 25.6288 78.1786C30.2826 78.1786 36.1163 74.788 41.9499 69.1154C47.8492 74.788 53.6828 78.1786 58.2711 78.1786C59.8442 78.1786 61.2207 77.8526 62.4661 77.1353C66.6611 74.7228 68.1687 68.6589 66.7922 60.1173C66.53 58.6176 66.2023 57.0528 65.809 55.4879C67.3821 55.0315 68.8897 54.5751 70.3317 53.9882C78.5251 50.8585 82.9823 46.5551 82.9823 41.73C82.9823 36.905 78.5251 32.6016 70.3317 29.4719ZM60.6308 9.5849C63.3182 11.1498 64.2359 15.9748 63.1216 22.8211C62.9249 24.1904 62.5972 25.6249 62.2039 27.1245C58.7955 26.3421 55.1904 25.8205 51.3887 25.4945C49.1601 22.3647 46.866 19.561 44.5718 17.0181C49.4223 12.2582 54.3383 8.99807 58.3367 8.99807C59.1888 8.99807 59.9753 9.19368 60.6308 9.5849ZM53.2896 48.2504C52.1097 50.3369 50.7332 52.4234 49.2912 54.5099C46.866 54.7055 44.4407 54.7707 41.9499 54.7707C39.3936 54.7707 36.9684 54.7055 34.6087 54.5099C33.1667 52.4234 31.8557 50.3369 30.6759 48.2504C29.4305 46.0987 28.2506 43.8817 27.2019 41.73C28.2506 39.5783 29.4305 37.3614 30.6759 35.2097C31.8557 33.1232 33.2322 31.0367 34.6742 28.9502C37.0995 28.7546 39.5247 28.6894 42.0155 28.6894C44.5718 28.6894 46.9971 28.7546 49.3567 28.9502C50.7988 31.0367 52.1097 33.1232 53.2896 35.2097C54.5349 37.3614 55.7148 39.5783 56.7635 41.73C55.6492 43.8817 54.5349 46.0334 53.2896 48.2504ZM58.7299 46.0986C59.7132 48.3808 60.4997 50.5977 61.2207 52.8146C58.9921 53.3362 56.6324 53.7274 54.1417 54.0534C54.9282 52.8146 55.7803 51.5105 56.5014 50.1412C57.2879 48.772 58.0089 47.4027 58.7299 46.0986ZM41.9499 63.7687C40.3768 62.0734 38.8692 60.2477 37.4272 58.3568C38.9348 58.422 40.4424 58.4872 41.9499 58.4872C43.4575 58.4872 44.9651 58.422 46.4727 58.3568C45.0307 60.2477 43.5231 62.0734 41.9499 63.7687ZM29.7582 53.9882C27.2674 53.6622 24.9078 53.271 22.6792 52.7494C23.4002 50.5977 24.1867 48.3156 25.1699 46.0334C25.891 47.3375 26.612 48.7068 27.3985 50.0108C28.1851 51.4453 28.9717 52.6842 29.7582 53.9882ZM25.1699 37.3614C24.1867 35.0793 23.4002 32.8624 22.6792 30.6455C24.9078 30.1239 27.2674 29.7327 29.7582 29.4067C28.9717 30.6455 28.1196 31.9496 27.3985 33.3188C26.612 34.6881 25.891 36.0574 25.1699 37.3614ZM41.9499 19.6914C43.5231 21.3867 45.0307 23.2124 46.4727 25.1032C44.9651 25.038 43.4575 24.9728 41.9499 24.9728C40.4424 24.9728 38.9348 25.038 37.4272 25.1032C38.8692 23.2124 40.3768 21.3867 41.9499 19.6914ZM56.5014 33.384L54.1417 29.4719C56.6324 29.7979 58.9921 30.1891 61.2207 30.7107C60.4997 32.8624 59.7132 35.1445 58.7299 37.4266C58.0089 36.0574 57.2879 34.6881 56.5014 33.384ZM20.7783 22.8211C19.664 15.9748 20.5817 11.1498 23.2691 9.5849C23.9246 9.19368 24.7111 8.99807 25.5632 8.99807C29.496 8.99807 34.4121 12.193 39.3281 17.0181C37.0339 19.4958 34.7398 22.3647 32.5112 25.4945C28.7095 25.8205 25.1044 26.4073 21.696 27.1245C21.3027 25.6249 21.0405 24.1904 20.7783 22.8211ZM4.58823 41.73C4.58823 38.6655 8.3244 35.4053 14.8791 32.9928C16.19 32.4712 17.6321 32.0148 19.0741 31.6236C20.1228 34.8837 21.4338 38.3395 23.0069 41.7952C21.4338 45.251 20.0573 48.6416 19.0741 51.9017C10.0286 49.2936 4.58823 45.3814 4.58823 41.73ZM23.2691 73.8752C20.5817 72.3103 19.664 67.4853 20.7783 60.6389C20.9749 59.2697 21.3027 57.8352 21.696 56.3355C25.1044 57.118 28.7095 57.6396 32.5112 57.9656C34.7398 61.0954 37.0339 63.8991 39.3281 66.442C34.4776 71.2019 29.5616 74.462 25.5632 74.462C24.7111 74.462 23.9246 74.2664 23.2691 73.8752ZM63.1216 60.6389C64.2359 67.4853 63.3182 72.3103 60.6308 73.8752C59.9753 74.2664 59.1888 74.462 58.3367 74.462C54.4039 74.462 49.4878 71.2671 44.5718 66.442C46.866 63.9643 49.1601 61.0954 51.3887 57.9656C55.1904 57.6396 58.7955 57.0528 62.2039 56.3355C62.5972 57.8352 62.8594 59.2697 63.1216 60.6389ZM69.0208 50.4673C67.7099 50.9889 66.2678 51.4453 64.8258 51.8365C63.7771 48.5764 62.4661 45.1206 60.893 41.6648C62.4661 38.2091 63.8426 34.8185 64.8258 31.5584C73.8713 34.1665 79.3117 38.0787 79.3117 41.73C79.3117 44.7946 75.5099 48.0547 69.0208 50.4673Z" fill="#176B87"/>
</svg>
