<svg width="84" height="84" viewBox="0 0 84 84" fill="none" xmlns="http://www.w3.org/2000/svg">
<path d="M49.4158 9.9827C49.2847 10.0218 48.5965 10.25 47.8689 10.4848C43.9754 11.7497 41.2159 13.2168 40.5342 14.3839C40.272 14.8273 40.2261 15.1924 40.3769 15.551C40.5473 15.9553 40.8619 16.2683 41.7271 16.8747C42.1335 17.1616 42.8218 17.7484 43.274 18.1918C45.4174 20.3174 46.4531 22.9255 46.3351 25.8727C46.204 29.1915 44.6374 32.5104 41.6485 35.8227C40.6063 36.9833 39.5313 37.9483 37.4797 39.5849C35.7689 40.9477 34.8382 41.8344 34.2024 42.6886C32.2556 45.3228 32.78 47.6701 35.7427 49.6327C38.358 51.3671 42.966 52.8081 48.4064 53.5905C50.2286 53.8514 52.2867 54.0209 52.7849 53.9492L53.1323 53.897L53.6763 52.919C56.4359 47.9831 57.8255 43.3211 57.9959 38.5025C58.068 36.3508 57.7992 33.8079 57.3339 32.3213C57.2486 32.054 57.1896 31.8257 57.1962 31.8192C57.2028 31.8127 57.9762 31.578 58.907 31.3041C63.8164 29.8501 68.5686 28.7025 72.4948 28.0244C73.2617 27.894 73.9107 27.7571 73.9434 27.7245C74.1532 27.5223 73.5436 26.5704 72.5473 25.5532C68.8767 21.7845 62.3875 18.9155 54.771 17.6897C53.3027 17.455 53.1257 17.3702 52.5817 16.653C51.7165 15.5119 50.9037 13.5689 49.796 10.0023C49.7632 9.88489 49.7304 9.88489 49.4158 9.9827ZM49.9205 11.3259C50.3466 12.4865 50.6087 13.3928 50.6087 13.7123V13.9666L50.2482 13.9275C48.2884 13.6993 45.1552 13.2168 44.4867 13.0407C44.3162 12.9951 44.2179 12.9299 44.2507 12.8777C44.3031 12.7995 44.9652 12.48 46.9447 11.5867C48.7865 10.7521 49.4879 10.4456 49.5469 10.4391C49.5731 10.4326 49.737 10.8369 49.9205 11.3259ZM45.7714 13.771C48.1638 14.2731 49.9139 14.586 50.2941 14.586C50.6677 14.586 50.6284 14.6186 48.8652 15.688C47.5084 16.5095 47.3511 16.5878 47.0102 16.5878H46.6366L45.6272 15.5771C44.408 14.3513 43.5821 13.4515 43.5821 13.3472C43.5821 13.3081 43.6083 13.295 43.6411 13.3146C43.6739 13.3211 44.6374 13.5297 45.7714 13.771ZM44.0016 14.899C44.5915 15.5836 45.0438 16.1574 45.0176 16.177C44.9652 16.2226 43.2872 15.8119 42.2646 15.4989C41.3666 15.225 41.2618 15.1337 41.4977 14.8273C41.655 14.6252 42.8087 13.6667 42.8939 13.6602C42.9201 13.6602 43.4117 14.2144 44.0016 14.899ZM51.6444 16.3074C51.8803 16.8616 52.0573 17.3115 52.0508 17.318C52.0377 17.3246 48.8914 16.8421 48.6161 16.7899C48.5571 16.7769 49.0881 16.4182 49.8091 15.9814C50.5301 15.5445 51.1331 15.2185 51.1659 15.2511C51.1987 15.2837 51.4084 15.7532 51.6444 16.3074ZM44.7816 17.3637C44.8406 17.4224 45.5944 19.8284 45.5616 19.861C45.5485 19.874 45.1946 19.4632 44.7685 18.9416C44.3425 18.42 43.7001 17.6832 43.3265 17.305L42.6579 16.6073L43.6936 16.966C44.2704 17.155 44.7554 17.3376 44.7816 17.3637ZM47.7902 17.6832C49.0946 17.8658 50.1761 18.0353 50.1958 18.0548C50.2155 18.0744 49.4223 18.6873 48.4457 19.4111C47.4625 20.1348 46.6563 20.7217 46.6432 20.7086C46.6301 20.6956 46.5317 20.3956 46.4203 20.0305C46.3089 19.6719 46.0336 18.922 45.8042 18.3613C45.5747 17.8006 45.3912 17.3441 45.4043 17.3441C45.4109 17.3441 46.4858 17.5006 47.7902 17.6832ZM51.0676 18.7199C51.356 19.3915 51.4674 20.0305 51.5133 21.315C51.5395 22.0062 51.5395 22.5669 51.5198 22.5669C51.4936 22.5669 51.0807 22.4235 50.6022 22.2539C49.6452 21.9083 47.7706 21.2954 47.5477 21.2498C47.4494 21.2302 47.9017 20.7999 49.0946 19.7827C50.0188 18.9872 50.8054 18.3417 50.8447 18.3417C50.8775 18.3417 50.9758 18.5113 51.0676 18.7199ZM54.4301 18.8829C55.8722 19.1763 57.1372 19.4371 57.2355 19.4632C57.3797 19.4958 57.0323 19.711 55.5051 20.5456C54.4563 21.1194 53.2634 21.7714 52.857 21.9996C52.4506 22.2278 52.1098 22.4039 52.1032 22.3974C52.0967 22.3909 52.136 22.1757 52.195 21.9214C52.4113 20.989 52.2736 19.8284 51.841 18.9025C51.7165 18.6352 51.6116 18.3939 51.6116 18.3809C51.6182 18.3091 51.8803 18.3613 54.4301 18.8829ZM58.3695 20.6369C58.2974 20.9629 58.1335 21.5171 58.009 21.8757C57.7337 22.6647 56.7243 24.7186 56.5866 24.7708C56.5342 24.7903 56.0557 24.5752 55.5379 24.2883C55.02 24.0014 54.2663 23.6232 53.873 23.4471L53.152 23.1276L55.7935 21.4389C57.9828 20.0435 58.4416 19.7762 58.4678 19.9001C58.4875 19.9849 58.4416 20.3109 58.3695 20.6369ZM60.3031 20.037C63.043 20.8195 65.9402 21.8757 65.7697 22.0322C65.737 22.0648 65.3764 22.1822 64.9766 22.293C62.9053 22.8734 60.0278 23.8644 58.6841 24.4578C58.2646 24.6404 57.9041 24.7773 57.8844 24.7512C57.8648 24.7316 58.0286 24.1318 58.2515 23.4145C58.6841 22.0062 59.1888 20.1087 59.1888 19.8675C59.1888 19.7632 59.2282 19.724 59.3265 19.7501C59.392 19.7762 59.8312 19.9066 60.3031 20.037ZM48.5112 22.8668C49.1339 23.069 49.8681 23.3493 50.1368 23.4863C50.6218 23.7275 50.6284 23.734 50.4908 23.884C50.2417 24.1579 47.5215 26.6812 47.4428 26.7073C47.4035 26.7203 47.3707 26.3422 47.3707 25.7879C47.3707 24.8294 47.2593 23.095 47.1741 22.7103C47.1085 22.4169 47.161 22.4235 48.5112 22.8668ZM65.9205 23.3689C65.324 24.3535 64.3343 25.7553 63.6264 26.6421C62.8988 27.5484 61.3584 29.2502 61.2667 29.2502C61.2339 29.2502 61.011 28.9764 60.7685 28.6373C59.8902 27.3919 58.8742 26.3161 57.9828 25.6901C57.8976 25.6314 57.8451 25.5662 57.8648 25.5467C57.8844 25.5271 59.3461 24.9925 61.1094 24.3535C64.6751 23.069 66.2482 22.5473 66.3465 22.6125C66.3597 22.6191 66.1696 22.9581 65.9205 23.3689ZM68.1491 23.1994C70.6136 24.9077 72.2851 26.29 72.8881 27.1181C73.0389 27.3267 73.1503 27.5028 73.1372 27.5158C73.1241 27.5289 72.331 27.6136 71.374 27.7114C67.5526 28.0831 64.8324 28.4678 63.3904 28.8329C63.0037 28.9307 62.6825 29.0024 62.6759 28.9959C62.6694 28.9894 62.925 28.6764 63.2462 28.2917C64.9111 26.303 66.4186 24.2361 66.9758 23.1602C67.1266 22.8734 67.2708 22.6451 67.297 22.6451C67.3297 22.6451 67.7099 22.8929 68.1491 23.1994ZM54.358 25.3185C54.83 25.5728 55.1905 25.801 55.1708 25.8401C55.1315 25.9118 50.9824 28.1744 50.943 28.1418C50.9365 28.1352 51.1462 27.4571 51.4215 26.6291C51.6968 25.801 51.959 24.9012 52.0114 24.6273L52.1032 24.1253L52.8046 24.4969C53.1913 24.699 53.8861 25.0642 54.358 25.3185ZM50.8775 25.4489C50.4776 26.8312 49.6649 28.6178 49.2912 28.9242C49.206 28.9959 49.0356 28.8981 48.4916 28.4547C48.1049 28.1483 47.7116 27.8418 47.6067 27.7701C47.5084 27.6984 47.4297 27.6267 47.4494 27.6071C47.7378 27.3267 51.0414 24.673 51.061 24.7121C51.0676 24.7382 50.9889 25.0707 50.8775 25.4489ZM58.4023 27.8549C59.025 28.2722 60.4146 29.5045 60.3424 29.5828C60.3228 29.6023 58.9135 30.0587 57.2159 30.5934C55.5182 31.1281 53.6239 31.7345 53.0078 31.9366C52.3916 32.1452 51.8803 32.3017 51.8738 32.2952C51.8672 32.2887 52.2998 31.7997 52.8308 31.2063C54.2204 29.661 55.6493 28.0114 56.1606 27.3593L56.5997 26.7986L57.17 27.105C57.4781 27.2746 58.0352 27.6136 58.4023 27.8549ZM55.1839 26.9681C55.1446 27.0203 54.771 27.4897 54.3515 28.0179C53.932 28.546 52.9225 29.8305 52.1098 30.8738L50.6284 32.7712L50.5825 32.4517C50.4908 31.8323 50.1565 30.613 49.9664 30.2022L49.7763 29.7849L50.7202 29.3154C51.6903 28.8329 53.7222 27.7375 54.6726 27.1833C55.256 26.8442 55.2953 26.8247 55.1839 26.9681ZM47.3183 29.2633C47.705 29.4589 48.0655 29.7197 48.0655 29.7979C48.0655 29.9218 45.5551 31.8518 45.483 31.7801C45.4699 31.7605 45.6927 31.3172 45.9877 30.789C46.2826 30.2609 46.5776 29.6675 46.6497 29.4654C46.7218 29.2633 46.8267 29.1003 46.8857 29.1003C46.9447 29.0937 47.1348 29.172 47.3183 29.2633ZM49.4551 31.6367C49.6255 31.9757 49.8091 32.9212 49.7173 33.0059C49.678 33.0385 48.6423 33.5275 47.4101 34.0948C46.1778 34.6556 44.5719 35.4119 43.8377 35.7771C43.1036 36.1422 42.5465 36.3965 42.6055 36.3508C42.6579 36.3052 43.4641 35.6271 44.4015 34.8577C46.2105 33.3645 48.2687 31.578 48.6423 31.1802L48.8717 30.939L49.0946 31.1476C49.2126 31.265 49.3765 31.4867 49.4551 31.6367ZM47.4297 31.6171C47.2527 31.7801 46.2826 32.6147 45.2863 33.4754C44.29 34.3361 43.0905 35.3728 42.6251 35.7771C41.6813 36.5921 41.6813 36.5921 42.8873 35.0337C43.8181 33.8275 44.3031 33.3776 45.6403 32.4843C46.2892 32.054 47.5805 31.3237 47.7116 31.3237C47.7312 31.3237 47.6067 31.4541 47.4297 31.6171ZM56.7833 32.4387C56.8291 32.6929 56.8947 33.4819 56.9209 34.1861L56.9668 35.4706L56.6653 35.3337C55.6296 34.8577 52.7193 33.2276 52.8308 33.182C53.4666 32.9277 56.6063 31.8909 56.6456 31.9301C56.6718 31.9562 56.7374 32.1844 56.7833 32.4387ZM54.3187 34.7403C55.5313 35.451 56.5342 36.0379 56.5473 36.0509C56.5604 36.0639 56.4031 36.1944 56.2064 36.3378C55.8197 36.6182 51.7165 38.7308 51.6575 38.6786C51.6378 38.659 51.6968 38.3069 51.782 37.9027C51.9524 37.0811 52.0967 34.6295 52.0311 33.8536C52.0049 33.5797 52.018 33.3841 52.0573 33.4102C52.0835 33.4297 53.1061 34.0296 54.3187 34.7403ZM50.9692 34.2187C51.061 34.9816 50.9496 36.5138 50.7398 37.3158C50.4973 38.2548 50.3531 38.646 50.2482 38.6786C50.104 38.7242 49.206 37.9157 48.662 37.2376C48.1114 36.553 47.3838 35.2685 47.4953 35.1641C47.5608 35.0989 50.7595 33.7884 50.8644 33.7884C50.8906 33.7818 50.9365 33.9774 50.9692 34.2187ZM47.043 36.1357C47.3838 36.8333 48.1573 37.8375 49.0028 38.6916C49.5469 39.2393 49.6845 39.4154 49.5993 39.4741C49.2191 39.7284 47.5149 40.5238 46.44 40.9411C45.1356 41.4497 43.4379 42.0366 43.3986 41.9844C43.3855 41.9648 43.7722 41.2606 44.2638 40.4195C45.3257 38.5873 46.6694 35.9857 46.6694 35.7705C46.6759 35.5032 46.7874 35.614 47.043 36.1357ZM45.0307 36.1813C45.011 36.2335 44.8472 36.6377 44.6702 37.0811C43.9164 38.985 42.4482 41.5736 42.1204 41.5736C41.8648 41.5736 41.4912 40.0674 41.3863 38.6199L41.3339 37.8896L43.1298 36.9898C44.1196 36.4943 44.9586 36.09 44.9979 36.09C45.0373 36.0835 45.0504 36.1292 45.0307 36.1813ZM57.0192 37.9418C57.0258 39.0372 56.5669 41.691 56.3179 41.9583C56.213 42.0692 55.079 41.6519 54.0499 41.1237C53.1323 40.6542 51.6182 39.7218 51.6182 39.624C51.6182 39.598 51.8476 39.4806 52.136 39.3632C52.68 39.135 55.2167 37.7853 56.2917 37.1528L56.9078 36.7877L56.9602 37.0681C56.9865 37.2246 57.0127 37.6223 57.0192 37.9418ZM40.1016 39.2067C40.2065 40.0739 40.4752 41.1367 40.8095 41.9779C40.9471 42.3234 41.0455 42.6234 41.0258 42.6364C40.8947 42.7538 35.5002 44.2339 34.7857 44.3447L34.4449 44.3969L34.4973 44.1361C34.5694 43.7644 35.0938 42.7081 35.4805 42.1344C35.9656 41.4236 37.1585 40.2304 37.9451 39.6762C38.535 39.2654 39.9508 38.4373 39.9901 38.4895C40.0164 38.496 40.0557 38.8155 40.1016 39.2067ZM52.3392 41.0389C54.0041 41.8344 54.6333 42.1083 55.433 42.3821L56.0426 42.5908L55.6559 42.7864C53.4731 43.8883 49.6059 45.4532 48.6096 45.6488C48.3867 45.6945 48.3539 45.6814 48.3998 45.5706C48.5702 45.1272 50.8775 40.3869 50.9234 40.3869C50.9496 40.3869 51.5919 40.6803 52.3392 41.0389ZM49.4092 40.8629C49.2912 41.4236 48.6554 43.2298 48.2884 44.0513C47.9672 44.7686 47.2265 46.1574 47.0954 46.2878C47.0364 46.3465 45.7189 45.6097 45.0963 45.1663C44.3949 44.6708 42.8611 43.1972 42.907 43.0602C42.9266 43.0081 43.8574 42.6495 44.9848 42.2648C47.3576 41.4497 48.6817 40.9607 49.0684 40.7586C49.4355 40.563 49.4682 40.576 49.4092 40.8629ZM56.0426 43.3537C56.0229 43.5167 55.8853 44.2274 55.7411 44.9511C55.2888 47.2072 54.7382 48.7525 54.3908 48.7525C53.9058 48.7525 50.6022 47.957 49.5338 47.5788C48.8062 47.3245 48.1835 47.0311 47.9738 46.8551C47.8427 46.7442 47.9148 46.7051 48.8586 46.3204C51.9131 45.0815 55.4395 43.4971 55.8197 43.1972C56.0491 43.0146 56.0819 43.0407 56.0426 43.3537ZM40.5735 44.0448C40.2261 44.6642 39.5182 45.6814 38.1614 47.5006L37.0078 49.0524L36.6604 48.8046C36.1753 48.4591 35.4019 47.6245 35.0807 47.0963C34.7333 46.529 34.4973 45.8249 34.4711 45.2902L34.4514 44.8729L35.0217 44.8142C35.7951 44.736 37.9648 44.2926 39.5051 43.8883C40.2065 43.7058 40.7898 43.5688 40.8029 43.5753C40.8095 43.5949 40.7112 43.8036 40.5735 44.0448ZM43.9361 45.6423C44.3228 45.9161 44.8537 46.2682 45.1225 46.4247L45.6141 46.7116L45.3912 46.8029C45.2667 46.8551 43.4707 47.5071 41.3929 48.2504C37.8468 49.5219 37.6174 49.6001 37.519 49.4697C37.46 49.3915 37.4207 49.3132 37.4273 49.2871C37.4338 49.2611 38.3908 48.0287 39.5575 46.5486L41.6747 43.8557L42.4547 44.5012C42.8939 44.8598 43.5493 45.3684 43.9361 45.6423ZM44.8078 49.6914C44.0344 50.8455 43.3789 51.817 43.3527 51.8431C43.2937 51.9213 42.0549 51.6345 41.1307 51.3215C40.1606 50.9955 38.9611 50.3956 38.4891 49.9913L38.1483 49.6979L38.9152 49.4893C42.0418 48.6416 46.1778 47.5527 46.1974 47.5658C46.2105 47.5788 45.5813 48.5373 44.8078 49.6914ZM48.5243 47.944C50.1827 48.5112 51.6903 48.8307 53.6501 49.0394L54.1876 49.0981L52.7259 49.6197C49.0815 50.9303 46.1253 51.8496 44.644 52.1365C44.2245 52.2148 43.8443 52.2865 43.805 52.2865C43.7656 52.2865 44.0606 51.8822 44.467 51.3867C45.5813 50.037 46.7874 48.4982 47.1085 48.0222C47.2659 47.794 47.4232 47.5984 47.4559 47.5984C47.4953 47.6049 47.9738 47.7549 48.5243 47.944ZM53.9582 50.9955C53.3289 52.606 52.8701 53.5905 52.7128 53.6492C52.4047 53.7666 48.0983 53.1406 46.7808 52.782C45.909 52.5473 45.3519 52.3191 45.5158 52.2604C45.5813 52.2408 46.204 52.0909 46.9053 51.9344C49.1798 51.4258 52.6538 50.376 54.0958 49.7631C54.2794 49.6849 54.4432 49.6262 54.4563 49.6392C54.4695 49.6523 54.2466 50.2587 53.9582 50.9955ZM28.4932 52.3582C28.1852 52.4886 28.041 52.7429 28.0082 53.2189C27.9754 53.6623 27.9754 53.6688 27.7525 53.6688C27.5297 53.6688 27.5231 53.6818 27.5494 53.9948C27.569 54.2882 27.5952 54.3208 27.7853 54.3469L27.9951 54.373V56.7594L28.3556 56.7268L28.7226 56.7007L28.7489 55.5271L28.7751 54.3534H29.85V55.2141C29.85 56.2834 29.9615 56.5638 30.4269 56.7203C30.6366 56.792 30.8333 56.8051 31.043 56.7594C31.338 56.7007 31.3511 56.6812 31.3773 56.3682L31.4035 56.0357L31.1479 56.0813C30.7022 56.1595 30.6759 56.1074 30.689 55.025L30.6956 54.3599H30.9185C31.3052 54.3599 31.3904 54.2882 31.3904 53.9687V53.6688H30.6956V53.3819C30.6956 52.9581 30.6235 52.8864 30.2237 52.9124L29.8828 52.932L29.8566 53.2971L29.8304 53.6623H28.762V53.4015C28.762 53.0428 28.9521 52.8668 29.2798 52.932C29.5289 52.9776 29.5354 52.9776 29.5354 52.7233C29.5354 52.5864 29.4895 52.4234 29.4437 52.3712C29.3388 52.28 28.7226 52.2669 28.4932 52.3582ZM11.4117 52.4821C11.0774 52.7168 11.2413 53.2058 11.6608 53.2058C12.0934 53.2058 12.1721 53.1472 12.1721 52.8146C12.1655 52.3908 11.7853 52.2213 11.4117 52.4821ZM5.73535 52.6907C5.61737 52.7755 5.60426 52.9711 5.62392 54.7446L5.64358 56.7007L6.01065 56.7268L6.37771 56.7529V55.0511C6.37771 54.1122 6.39737 53.3623 6.41704 53.3819C6.44326 53.4015 6.66612 54.0209 6.92175 54.7577C7.17738 55.4945 7.43957 56.2443 7.50512 56.4269L7.62966 56.7594L8.01638 56.7268L8.40311 56.7007L8.99303 55.0707L9.58295 53.4406L9.62228 55.0707C9.6485 55.9705 9.67472 56.7138 9.68127 56.7268C9.68783 56.7399 9.8648 56.7399 10.0614 56.7268L10.4285 56.7007L10.4482 54.7512C10.4613 53.3754 10.4416 52.769 10.3761 52.6907C10.2384 52.5212 9.36665 52.5538 9.20933 52.7299C9.14379 52.8081 8.86849 53.4406 8.6063 54.1317C8.34412 54.8229 8.10815 55.4162 8.08193 55.4488C8.05571 55.4814 7.8263 54.9272 7.57066 54.223C7.31503 53.5058 7.03318 52.8668 6.93486 52.769C6.79721 52.6321 6.67923 52.5929 6.31216 52.5929C6.06964 52.5929 5.80745 52.6386 5.73535 52.6907ZM13.6796 53.6688C13.1159 53.8514 12.7816 54.4317 12.7816 55.2467C12.7816 56.1595 13.129 56.6551 13.8632 56.779C14.1975 56.8377 14.7677 56.7073 14.9644 56.5312C15.0954 56.4138 15.1544 55.977 15.0496 55.8792C15.0233 55.8531 14.8791 55.8987 14.7284 55.9835C14.1712 56.2834 13.7583 56.1139 13.6272 55.5336C13.542 55.1489 13.6337 54.6534 13.8369 54.4382C14.0008 54.2621 14.4072 54.2491 14.7218 54.4121C15.0168 54.5621 15.102 54.5099 15.102 54.1709C15.102 53.9818 15.0561 53.8774 14.9185 53.7927C14.6825 53.6297 13.9877 53.571 13.6796 53.6688ZM16.6882 53.8253C16.4195 54.06 16.4195 54.06 16.3933 53.884C16.3736 53.734 16.3212 53.7014 16.0393 53.6818L15.7116 53.6557V56.7333H16.485V55.7814C16.485 54.8294 16.485 54.8294 16.7145 54.5816C16.9045 54.3795 16.9897 54.3404 17.2192 54.3665C17.5076 54.3991 17.5666 54.3339 17.5666 53.9752C17.5666 53.5319 17.1208 53.4536 16.6882 53.8253ZM18.8251 53.6818C18.2024 53.8644 17.8222 54.5882 17.9008 55.4423C17.973 56.2313 18.3793 56.6812 19.1135 56.7855C20.4113 56.9615 21.2569 55.9053 20.8898 54.5751C20.6669 53.7927 19.7755 53.4015 18.8251 53.6818ZM19.7296 54.2817C20.136 54.4969 20.2409 55.4358 19.9066 55.8792C19.6968 56.153 19.2315 56.2052 18.9496 55.9835C18.7792 55.8466 18.7661 55.7814 18.7661 55.2076C18.7661 54.6142 18.7792 54.5686 18.9824 54.3925C19.2052 54.1969 19.4936 54.1578 19.7296 54.2817ZM22.0106 53.7014C21.6174 53.8709 21.4732 54.0991 21.4732 54.5229C21.4732 54.9794 21.6174 55.1489 22.3056 55.4749C22.6989 55.664 22.7841 55.7357 22.7841 55.8987C22.7841 56.0357 22.7251 56.1139 22.5678 56.1661C22.3711 56.2313 22.1876 56.1987 21.5649 56.0031C21.4469 55.9639 21.4273 55.9965 21.4469 56.2574C21.4666 56.5051 21.5125 56.5769 21.7026 56.6681C22.0237 56.8246 22.7972 56.8116 23.1184 56.6421C23.5838 56.3943 23.728 55.6444 23.3871 55.2663C23.3085 55.1815 23.0266 55.0055 22.7448 54.875C22.2335 54.6338 22.109 54.4577 22.2859 54.2491C22.4039 54.1122 22.7513 54.1122 23.0987 54.2556C23.3281 54.3534 23.374 54.3534 23.4133 54.2621C23.492 54.0535 23.4002 53.8057 23.2101 53.7079C22.9545 53.571 22.299 53.571 22.0106 53.7014ZM25.1372 53.6492C24.4555 53.8905 24.1475 54.3013 24.0819 55.0315C24.0033 55.9313 24.331 56.5051 25.0389 56.7138C26.2253 57.0594 27.1495 56.3747 27.143 55.1554C27.1364 54.4186 26.8021 53.8774 26.2253 53.6818C25.9566 53.5905 25.347 53.571 25.1372 53.6492ZM26.0352 54.3925C26.2384 54.5621 26.2515 54.6142 26.2515 55.1554C26.2515 55.664 26.2319 55.7553 26.0614 55.9313C25.8189 56.1856 25.3601 56.2052 25.1307 55.977C24.934 55.7814 24.875 55.5271 24.9209 54.9989C24.9471 54.6534 24.9996 54.536 25.1634 54.386C25.4387 54.1513 25.7599 54.1578 26.0352 54.3925ZM11.3331 55.1815L11.3527 56.7073H12.1262V53.7079L11.7198 53.6883L11.3134 53.6623L11.3331 55.1815ZM7.64276 58.6242C6.65301 58.8394 5.90577 59.3806 5.51249 60.1826C5.26997 60.6716 5.25686 60.7433 5.25686 61.5388C5.25686 62.3082 5.27652 62.4256 5.46661 62.8168C5.87955 63.6579 6.6399 64.2513 8.22613 64.9685C9.95657 65.7509 10.4285 66.2334 10.4285 67.231C10.4285 68.1374 10.0025 68.6785 9.06513 68.9654C8.13437 69.2523 7.2036 69.1154 5.99754 68.5155C5.5977 68.3134 5.23719 68.1374 5.21098 68.1243C5.1782 68.1113 5.1061 68.1569 5.034 68.2221C4.8898 68.3721 4.86358 69.1154 5.00123 69.3632C5.28963 69.9044 6.80376 70.4064 8.12126 70.4064C10.5989 70.4064 12.1983 68.9394 12.0672 66.7811C12.041 66.3117 11.982 66.0835 11.7853 65.6922C11.3986 64.9163 10.9004 64.5121 9.38631 63.7753C8.68496 63.4362 7.91806 63.0254 7.67554 62.8624C6.71855 62.2234 6.49569 61.1345 7.17083 60.3782C7.54444 59.9544 7.92462 59.8174 8.70462 59.8109C9.4453 59.8109 9.74682 59.8892 10.5989 60.3195C11.3331 60.6912 11.3986 60.6586 11.3986 59.9348C11.3986 59.2828 11.3593 59.2241 10.6907 58.9176C9.80581 58.5329 8.61941 58.4156 7.64276 58.6242ZM17.973 58.5786C16.5113 58.8133 15.3839 59.5175 14.6301 60.6716C14.2499 61.2584 14.0401 61.8061 13.8435 62.732C13.6272 63.7427 13.6796 65.9922 13.9353 66.9181C14.5645 69.1936 15.9738 70.2891 18.3859 70.3934C19.6575 70.4456 20.1491 70.3543 21.3945 69.8261C21.4404 69.8066 21.6501 69.937 21.8599 70.113C22.6596 70.8042 24.4162 71.7953 25.0323 71.9126C25.4125 71.9843 25.5174 71.8605 25.5174 71.3258C25.5174 71.078 25.4977 70.8237 25.4715 70.752C25.4453 70.6803 25.0782 70.4521 24.6456 70.2369C23.9836 69.9109 22.6596 69.0632 22.6596 68.9654C22.6596 68.9459 22.7841 68.7764 22.9283 68.5807C23.551 67.7722 23.9246 66.6442 24.0557 65.1837C24.154 64.0687 24.0623 62.8755 23.8066 61.9496C23.3412 60.2739 22.2073 59.1198 20.6079 58.6894C20.077 58.559 18.5563 58.4873 17.973 58.5786ZM20.2933 60.0457C21.211 60.3847 21.8206 61.0759 22.1745 62.1517C22.3515 62.6929 22.3843 62.9407 22.417 64.0882C22.4629 65.627 22.3449 66.3704 21.9385 67.231C21.2896 68.6133 19.8673 69.3045 18.2089 69.0502C16.1507 68.7372 15.2462 67.1919 15.3511 64.16C15.4101 62.419 15.7247 61.5062 16.5375 60.7368C17.016 60.2804 17.3634 60.0783 17.9205 59.9413C18.5629 59.7718 19.7034 59.824 20.2933 60.0457ZM38.8627 58.6307C37.9123 58.859 37.1061 59.4458 36.7587 60.15C36.3654 60.9585 36.3523 62.0996 36.7259 62.8363C37.1651 63.7036 37.755 64.1535 39.5903 65.0207C40.9799 65.6792 41.4453 66.0639 41.6354 66.7094C41.8582 67.4723 41.5698 68.2678 40.9275 68.6851C39.9246 69.3306 38.4957 69.2263 36.9684 68.3982C36.2802 68.0265 36.1819 68.0656 36.1819 68.7242C36.1819 69.3371 36.2671 69.5197 36.6866 69.7609C37.9779 70.5173 40.1278 70.6151 41.465 69.9891C43.0774 69.2328 43.805 67.2441 43.0446 65.6662C42.9463 65.464 42.671 65.1119 42.4219 64.8707C42.0418 64.499 41.7402 64.3165 40.4686 63.697C38.358 62.6668 37.9385 62.2234 38.0631 61.1737C38.1286 60.652 38.4039 60.2673 38.889 60.0261C39.2233 59.8566 39.4068 59.824 39.918 59.824C40.6784 59.824 40.9865 59.9022 41.7534 60.2934C42.4088 60.626 42.5465 60.652 42.6186 60.4695C42.7103 60.2413 42.6645 59.4784 42.553 59.3154C42.4023 59.1067 41.6354 58.7677 40.9865 58.6307C40.3375 58.4938 39.4461 58.4873 38.8627 58.6307ZM26.848 58.7546C26.7759 58.8264 26.7562 60.1761 26.7562 64.3621V69.8783L26.9463 70.0674L27.1364 70.2565H29.8763C31.9738 70.2565 32.6292 70.2304 32.6948 70.1587C32.8128 70.0087 32.8652 69.5588 32.7997 69.2589L32.7407 68.9915L30.5448 68.9524L28.349 68.9133L28.3294 63.847C28.3162 59.9152 28.29 58.7677 28.2179 58.722C28.0541 58.6307 26.9529 58.6503 26.848 58.7546ZM47.4494 61.6366C47.0758 61.6953 46.3285 61.9887 46.0205 62.1974C45.2798 62.6994 44.7554 63.5014 44.4604 64.5773C44.2769 65.2619 44.2769 66.9507 44.4604 67.6483C44.8406 69.0763 45.6796 69.9435 47.0168 70.2956C47.6001 70.4455 49.0749 70.4455 49.796 70.2956C50.4776 70.1521 51.1856 69.8913 51.3166 69.7414C51.4412 69.5979 51.4346 68.822 51.3101 68.6981C51.2445 68.6329 51.0414 68.6785 50.4973 68.8611C48.4064 69.5653 46.7939 69.2589 46.1712 68.0396C45.9877 67.6809 45.8173 66.9637 45.8173 66.5594V66.3443H48.4719C50.1499 66.3443 51.2118 66.3117 51.3625 66.2595C51.7034 66.1421 51.7951 65.8487 51.7361 65.0924C51.6182 63.5927 51.1135 62.6538 50.1237 62.0604C49.4944 61.6823 48.3277 61.4932 47.4494 61.6366ZM48.8652 62.8429C49.6518 63.0776 50.1368 63.7427 50.2089 64.662L50.2482 65.1902H45.8042L45.8566 64.8707C45.9942 64.0752 46.3285 63.4819 46.8464 63.1298C47.4297 62.732 48.1573 62.6277 48.8652 62.8429ZM56.4621 61.6562C56.095 61.7735 55.5641 62.1974 55.1839 62.6733L54.8168 63.1428L54.7775 62.4582L54.7382 61.7735L54.2794 61.7475C54.0237 61.7344 53.7419 61.7409 53.6436 61.767L53.4666 61.8061V65.9857C53.4666 69.7283 53.4797 70.1652 53.5911 70.2108C53.7484 70.2695 54.6595 70.2695 54.8103 70.2108C54.9217 70.1717 54.9348 69.8522 54.9348 67.4397V64.7142L55.2757 64.2382C55.7411 63.5862 56.3441 63.058 56.6915 62.9928C56.875 62.9602 57.1634 62.9863 57.5043 63.0711C57.8386 63.1558 58.0614 63.1754 58.1073 63.1298C58.1466 63.0906 58.1729 62.7777 58.1597 62.4516C58.1401 61.8648 58.127 61.8387 57.9107 61.7409C57.6419 61.6105 56.757 61.5584 56.4621 61.6562ZM69.755 61.6627C69.1454 61.767 68.2802 62.2104 67.8345 62.6538C66.9889 63.4949 66.635 64.6555 66.6939 66.3769C66.7464 67.9287 67.0348 68.6981 67.8541 69.461C68.6341 70.1978 69.46 70.439 70.9545 70.3934C72.0491 70.3543 73.0323 70.1391 73.4846 69.8392C73.7075 69.6892 73.7337 69.6305 73.7533 69.2523C73.7664 69.0241 73.7402 68.7829 73.7009 68.7177C73.6223 68.5938 73.6878 68.5807 72.3834 68.9915C71.8525 69.1545 71.5706 69.1936 70.9152 69.2002C69.6173 69.2067 68.9488 68.8611 68.5096 67.9744C68.3261 67.6027 68.2605 67.3419 68.2277 66.9115L68.1884 66.3443L70.9676 66.3247C74.3039 66.2986 74.0811 66.3704 74.0745 65.3467C74.068 63.5471 73.288 62.2952 71.8787 61.8061C71.3674 61.6366 70.3383 61.5649 69.755 61.6627ZM71.2101 62.8494C71.977 63.0776 72.4817 63.7557 72.5866 64.7142L72.639 65.1902H68.195L68.2408 64.8055C68.3523 63.8666 69.0012 63.058 69.8402 62.8037C70.1614 62.7059 70.7906 62.732 71.2101 62.8494ZM78.866 61.6497C78.3678 61.8127 77.6796 62.3864 77.2994 62.9537C77.1749 63.1428 77.1683 63.1298 77.1683 62.5299C77.1683 62.1517 77.1356 61.8779 77.0766 61.8257C76.952 61.7018 75.995 61.7018 75.8705 61.8257C75.7394 61.9561 75.7394 70.0348 75.8705 70.1652C75.995 70.2891 77.1028 70.2891 77.2273 70.1652C77.2929 70.1 77.3191 69.3697 77.3191 67.381V64.6881L77.6075 64.2643C78.0336 63.6318 78.571 63.1363 78.9447 63.0254C79.2658 62.9276 79.3904 62.9407 80.249 63.1624C80.4916 63.2276 80.5637 63.0906 80.5637 62.5755C80.5637 62.0017 80.5112 61.8453 80.2687 61.7344C80.0196 61.6236 79.1216 61.5649 78.866 61.6497ZM58.3367 61.8518C58.2581 61.9496 58.494 62.6668 59.687 65.9791C60.4801 68.183 61.1946 70.0543 61.2732 70.1391C61.5682 70.439 63.0299 70.3673 63.161 70.0478C63.2593 69.7935 65.9664 62.3147 66.0188 62.1387C66.1106 61.8322 65.9467 61.7409 65.2847 61.7409C64.898 61.7409 64.6554 61.7735 64.6096 61.8387C64.5702 61.8909 64.0196 63.4493 63.3904 65.301C62.7611 67.1528 62.2236 68.6394 62.1909 68.6003C62.1581 68.5677 61.6206 67.055 60.9979 65.2358C60.3752 63.4167 59.8246 61.8909 59.7787 61.8322C59.6608 61.6823 58.4547 61.7018 58.3367 61.8518Z" fill="#176B87"/>
</svg>
