<svg width="84" height="84" viewBox="0 0 84 84" fill="none" xmlns="http://www.w3.org/2000/svg">
<path d="M8.66989 36.562C6.35739 36.562 4.91602 37.7213 4.34248 40.0184C5.21032 38.8624 6.22695 38.4366 7.37402 38.7294C8.02949 38.8924 8.50602 39.3664 9.02777 39.9037C9.88054 40.767 10.8637 41.7633 13.0124 41.7633C15.3216 41.7633 16.763 40.604 17.3365 38.3068C16.4687 39.4629 15.452 39.8887 14.3049 39.5959C13.6495 39.4329 13.1762 38.9589 12.6512 38.4216C11.7984 37.5583 10.8152 36.562 8.66989 36.562ZM4.3274 41.73C2.01491 41.73 0.573535 42.8861 0 45.1858C0.867841 44.0271 1.88447 43.6046 3.03154 43.8974C3.68701 44.0604 4.16354 44.5344 4.68529 45.0717C5.53806 45.935 6.52126 46.9313 8.66989 46.9313C10.9791 46.9313 12.4205 45.772 12.994 43.4748C12.1262 44.6309 11.1095 45.0567 9.96247 44.7607C9.307 44.5976 8.83375 44.1269 8.30872 43.5896C7.47103 42.7231 6.48783 41.73 4.3274 41.73Z" fill="#176B87"/>
<path d="M26.0064 40.915H24.4981V43.8341C24.4981 44.6159 25.0048 44.5977 26.0057 44.5494V45.7237C23.9738 45.9682 23.1721 45.4127 23.1721 43.8341V40.915H22.0552V39.6592H23.1721V38.0291L24.4831 37.6398V39.6592H25.988V40.915H26.0064ZM31.7745 39.6592H33.0854V45.7237H31.7745V44.8422C31.3137 45.4792 30.5947 45.8717 29.6442 45.8717C27.9879 45.8717 26.6133 44.4679 26.6133 42.6748C26.6133 40.8667 27.9879 39.4812 29.6449 39.4812C30.5947 39.4812 31.3137 39.8704 31.7752 40.5075L31.7745 39.6592ZM29.8389 44.6309C30.9375 44.6309 31.7752 43.8159 31.7752 42.6931C31.7752 41.567 30.9375 40.752 29.8389 40.752C28.7436 40.752 27.9059 41.567 27.9059 42.6931C27.9243 43.8159 28.7436 44.6309 29.8396 44.6309H29.8389ZM35.2799 38.7476C34.8218 38.7476 34.4455 38.3551 34.4455 37.9143C34.4455 37.4586 34.8218 37.0843 35.2799 37.0843C35.7388 37.0843 36.1176 37.4586 36.1176 37.9143C36.1327 38.3551 35.7381 38.7476 35.2799 38.7476ZM34.6245 45.7237V39.6598H35.9354V45.7237H34.6245ZM37.4587 45.7237V36.873H38.7697V45.7237H37.4587ZM47.3425 39.6598H48.7354L46.8175 45.7237H45.5216L44.2592 41.6335L42.9817 45.7237H41.6891L39.7712 39.6598H41.1634L42.3433 43.8491L43.6214 39.6592H44.8839L46.143 43.8491L47.3425 39.6598ZM50.3557 38.747C49.8975 38.747 49.5213 38.3558 49.5213 37.9143C49.5213 37.4586 49.8975 37.0843 50.3557 37.0843C50.8146 37.0843 51.1934 37.4586 51.1934 37.9143C51.2085 38.3551 50.8322 38.7476 50.3557 38.7476V38.747ZM49.7003 45.7237V39.6598H51.0112V45.7237H49.7003ZM55.7483 39.4968C57.1077 39.4968 58.0909 40.426 58.0909 41.9895V45.7237H56.78V42.1375C56.78 41.2078 56.2399 40.737 55.4205 40.737C54.5527 40.737 53.8638 41.241 53.8638 42.4786V45.7387H52.5529V39.6774H53.8638V40.4592C54.2735 39.8072 54.9289 39.4962 55.7483 39.4962V39.4968ZM64.3513 37.2323H65.6622V45.7237H64.3513V44.8422C63.8925 45.4792 63.1708 45.8717 62.221 45.8717C60.564 45.8717 59.1895 44.4679 59.1895 42.6748C59.1895 40.8667 60.564 39.4812 62.221 39.4812C63.1708 39.4812 63.8925 39.8704 64.3513 40.5075V37.2323ZM62.4177 44.6309C63.5136 44.6309 64.3513 43.8159 64.3513 42.6931C64.3513 41.567 63.5136 40.752 62.4177 40.752C61.3197 40.752 60.4821 41.567 60.4821 42.6931C60.4821 43.8159 61.3197 44.6309 62.4183 44.6309H62.4177ZM70.0683 45.8867C68.2356 45.8867 66.8427 44.4862 66.8427 42.6931C66.8427 40.8817 68.2172 39.4962 70.0683 39.4962C71.2671 39.4962 72.2988 40.1156 72.7905 41.063L71.6585 41.715C71.3976 41.1445 70.7906 40.7852 70.0532 40.7852C68.973 40.7852 68.1687 41.6003 68.1687 42.6931C68.1687 43.7826 68.9881 44.5977 70.0532 44.5977C70.7906 44.5977 71.3792 44.2234 71.6768 43.6711L72.8055 44.3049C72.3139 45.268 71.2671 45.8867 70.0683 45.8867ZM75.0027 41.3225C75.0027 42.431 78.28 41.7633 78.28 44.0121C78.28 45.2197 77.2149 45.8867 75.9039 45.8867C74.69 45.8867 73.8064 45.3312 73.4125 44.4679L74.5445 43.8159C74.7385 44.3714 75.2301 44.6974 75.9039 44.6974C76.4925 44.6974 76.9356 44.5012 76.9356 44.0121C76.9356 42.9376 73.6583 43.5381 73.6583 41.3714C73.6583 40.2304 74.6415 39.5144 75.8856 39.5144C76.8871 39.5144 77.7215 39.9702 78.1496 40.767L77.0326 41.389C76.8203 40.915 76.3955 40.7037 75.8856 40.7037C75.4123 40.6855 75.0027 40.8993 75.0027 41.3225ZM80.6227 41.3225C80.6227 42.431 83.9 41.7633 83.9 44.0121C83.9 45.2197 82.8349 45.8867 81.5239 45.8867C80.31 45.8867 79.4264 45.3312 79.0331 44.4679L80.1645 43.8159C80.3611 44.3714 80.8527 44.6974 81.5239 44.6974C82.1125 44.6974 82.5556 44.5012 82.5556 44.0121C82.5556 42.9376 79.2783 43.5381 79.2783 41.3714C79.2783 40.2304 80.2615 39.5144 81.5088 39.5144C82.5071 39.5144 83.3415 39.9702 83.7696 40.767L82.6553 41.389C82.4403 40.915 82.0155 40.7037 81.5082 40.7037C81.0323 40.6855 80.6227 40.8993 80.6227 41.3225Z" fill="#176B87"/>
</svg>
