<svg width="84" height="84" viewBox="0 0 84 84" fill="none" xmlns="http://www.w3.org/2000/svg">
<path d="M1.31094 41.6714V82.4233H83.2445V0.919434H1.31094V41.6714ZM67.3363 38.4112C69.2987 38.8642 71.0823 39.8852 72.4621 41.3454C73.2217 42.132 73.882 43.0079 74.4285 43.9535C74.4285 44.0578 70.889 46.4377 68.7325 47.7679C68.6538 47.82 68.3392 47.481 67.9918 46.9659C67.5981 46.2902 67.0388 45.7247 66.3659 45.3222C65.6931 44.9197 64.9287 44.6933 64.1442 44.6642C61.66 44.4947 60.0606 45.7922 60.0737 47.9244C60.0532 48.4552 60.1754 48.9819 60.4277 49.4501C60.9717 50.5781 61.9877 51.2497 65.1733 52.619C71.0397 55.1293 73.5502 56.7855 75.1102 59.1393C76.8537 61.7474 77.2404 65.9595 76.0606 69.0763C74.7497 72.4668 71.5379 74.7685 66.9955 75.5314C64.9208 75.7677 62.8246 75.7458 60.7554 75.4662C57.5975 74.9566 54.6844 73.4608 52.4375 71.1954C51.6837 70.3673 50.2155 68.2091 50.3072 68.0526C50.5465 67.8759 50.7985 67.7168 51.061 67.5766L54.0762 65.8552L56.4293 64.499L56.9209 65.2227C57.7506 66.4033 58.8064 67.4093 60.0278 68.183C62.6497 69.5522 66.2286 69.3632 67.9983 67.7787C68.5925 67.1981 68.9632 66.4286 69.0459 65.6042C69.1285 64.7797 68.9179 63.9525 68.4506 63.2667C67.7951 62.3603 66.4842 61.5975 62.8201 60.0065C58.5924 58.1939 56.7702 57.0724 55.1053 55.2858C54.0659 54.1069 53.2985 52.7159 52.857 51.2106C52.5277 49.4908 52.479 47.7295 52.7128 45.9944C53.5846 41.9322 56.6456 39.0959 61.1159 38.2547C63.1862 37.9999 65.2832 38.0571 67.3363 38.4243V38.4112ZM48.1049 41.8279V45.1663H37.4666V75.3097H29.9222V45.1598H19.2577V41.8996C19.229 40.7773 19.2597 39.6542 19.3494 38.5351C19.3888 38.483 25.9041 38.4569 33.7698 38.4699H48.0655L48.1049 41.8279Z" fill="#176B87"/>
</svg>
